<svg width="1440" height="2848" viewBox="0 0 1440 2848" fill="none" xmlns="http://www.w3.org/2000/svg">
<g opacity="0.79" filter="url(#filter0_df)">
<path opacity="0.79" d="M2417.48 77.6188C2032.52 -503.829 1265.43 -679.449 704.134 -314.64C142.837 50.1693 -0.114015 817.262 384.845 1398.71C769.804 1980.16 1536.9 2155.78 2098.19 1790.97C2659.49 1426.16 2802.44 659.066 2417.48 77.6188Z" stroke="url(#paint0_linear)" stroke-width="0.5" stroke-miterlimit="10"/>
<path opacity="0.79" d="M2345.86 124.173C1988.03 -416.296 1275 -579.539 753.257 -240.441C231.518 98.6578 98.642 811.688 456.471 1352.16C814.3 1892.63 1527.33 2055.87 2049.07 1716.77C2570.81 1377.67 2703.69 664.642 2345.86 124.173Z" stroke="url(#paint1_linear)" stroke-width="0.7273" stroke-miterlimit="10"/>
<path opacity="0.79" d="M2459.45 972.203C2568.47 407.992 2183.03 -154.198 1598.55 -283.485C1014.07 -412.772 451.883 -60.1966 342.865 504.014C233.847 1068.22 619.284 1630.42 1203.76 1759.7C1788.24 1888.99 2350.43 1536.41 2459.45 972.203Z" stroke="url(#paint2_linear)" stroke-width="0.9545" stroke-miterlimit="10"/>
<path opacity="0.79" d="M2372.76 953.03C2472.85 435.036 2118.99 -81.1033 1582.39 -199.8C1045.78 -318.496 529.643 5.19838 429.555 523.192C329.467 1041.19 683.333 1557.33 1219.94 1676.02C1756.54 1794.72 2272.68 1471.02 2372.76 953.03Z" stroke="url(#paint3_linear)" stroke-width="1.1818" stroke-miterlimit="10"/>
<path opacity="0.79" d="M2285.94 933.823C2377.09 462.116 2054.84 -7.90106 1566.19 -115.991C1077.54 -224.081 607.521 70.6888 516.377 542.395C425.233 1014.1 747.477 1484.12 1236.13 1592.21C1724.78 1700.3 2194.8 1405.53 2285.94 933.823Z" stroke="url(#paint4_linear)" stroke-width="1.4091" stroke-miterlimit="10"/>
<path opacity="0.79" d="M2199.12 914.617C2281.32 489.199 1990.7 65.3031 1550 -32.18C1109.29 -129.663 685.398 136.181 603.198 561.6C520.998 987.019 811.621 1410.91 1252.32 1508.4C1693.02 1605.88 2116.92 1340.04 2199.12 914.617Z" stroke="url(#paint5_linear)" stroke-width="1.6364" stroke-miterlimit="10"/>
<path opacity="0.79" d="M2112.3 895.414C2185.55 516.283 1926.55 138.509 1533.8 51.633C1141.05 -35.2435 763.276 201.675 690.02 580.807C616.763 959.938 875.765 1337.71 1268.52 1424.59C1661.27 1511.46 2039.04 1274.55 2112.3 895.414Z" stroke="url(#paint6_linear)" stroke-width="1.8636" stroke-miterlimit="10"/>
<path opacity="0.79" d="M2025.48 876.209C2089.79 543.365 1862.41 211.714 1517.61 135.444C1172.81 59.1738 841.155 267.168 776.843 600.011C712.53 932.855 939.91 1264.51 1284.71 1340.78C1629.51 1417.05 1961.16 1209.05 2025.48 876.209Z" stroke="url(#paint7_linear)" stroke-width="2.0909" stroke-miterlimit="10"/>
<path opacity="0.79" d="M1938.65 857.004C1994.02 570.448 1798.26 284.918 1501.41 219.254C1204.56 153.591 919.033 332.66 863.664 619.216C808.295 905.772 1004.05 1191.3 1300.9 1256.97C1597.75 1322.63 1883.28 1143.56 1938.65 857.004Z" stroke="url(#paint8_linear)" stroke-width="2.3182" stroke-miterlimit="10"/>
<path opacity="0.79" d="M1851.83 837.799C1898.26 597.531 1734.12 358.123 1485.22 303.066C1236.32 248.01 996.91 398.154 950.484 638.422C904.059 878.69 1068.2 1118.1 1317.1 1173.15C1566 1228.21 1805.41 1078.07 1851.83 837.799Z" stroke="url(#paint9_linear)" stroke-width="2.5454" stroke-miterlimit="10"/>
<path opacity="0.79" d="M1765.01 818.594C1802.49 624.614 1669.98 431.328 1469.03 386.878C1268.08 342.428 1074.79 463.646 1037.31 657.627C999.827 851.608 1132.34 1044.89 1333.29 1089.34C1534.24 1133.79 1727.53 1012.58 1765.01 818.594Z" stroke="url(#paint10_linear)" stroke-width="2.7727" stroke-miterlimit="10"/>
<path opacity="0.79" d="M1678.19 799.387C1706.72 651.694 1605.83 504.53 1452.83 470.687C1299.83 436.843 1152.67 529.137 1124.13 676.83C1095.59 824.523 1196.49 971.687 1349.49 1005.53C1502.49 1039.37 1649.65 947.08 1678.19 799.387Z" stroke="url(#paint11_linear)" stroke-width="3" stroke-miterlimit="10"/>
</g>
<defs>
<filter id="filter0_df" x="148.421" y="-525.117" width="2505.49" height="2526.56" filterUnits="userSpaceOnUse" color-interpolation-filters="sRGB">
<feFlood flood-opacity="0" result="BackgroundImageFix"/>
<feColorMatrix in="SourceAlpha" type="matrix" values="0 0 0 0 0 0 0 0 0 0 0 0 0 0 0 0 0 0 127 0" result="hardAlpha"/>
<feOffset dy="4"/>
<feGaussianBlur stdDeviation="2"/>
<feColorMatrix type="matrix" values="0 0 0 0 0 0 0 0 0 0 0 0 0 0 0 0 0 0 0.25 0"/>
<feBlend mode="normal" in2="BackgroundImageFix" result="effect1_dropShadow"/>
<feBlend mode="normal" in="SourceGraphic" in2="effect1_dropShadow" result="shape"/>
<feGaussianBlur stdDeviation="10" result="effect2_foregroundBlur"/>
</filter>
<linearGradient id="paint0_linear" x1="2098.19" y1="1790.97" x2="722.092" y2="-326.311" gradientUnits="userSpaceOnUse">
<stop stop-color="#8BC6E3"/>
<stop offset="1" stop-color="#007FBF"/>
</linearGradient>
<linearGradient id="paint1_linear" x1="2049.07" y1="1716.77" x2="769.95" y2="-251.29" gradientUnits="userSpaceOnUse">
<stop stop-color="#8BC6E3"/>
<stop offset="1" stop-color="#007FBF"/>
</linearGradient>
<linearGradient id="paint2_linear" x1="1203.76" y1="1759.7" x2="1653.05" y2="-271.43" gradientUnits="userSpaceOnUse">
<stop stop-color="#8BC6E3"/>
<stop offset="1" stop-color="#007FBF"/>
</linearGradient>
<linearGradient id="paint3_linear" x1="1219.93" y1="1676.02" x2="1632.42" y2="-188.732" gradientUnits="userSpaceOnUse">
<stop stop-color="#8BC6E3"/>
<stop offset="1" stop-color="#007FBF"/>
</linearGradient>
<linearGradient id="paint4_linear" x1="1236.13" y1="1592.21" x2="1611.75" y2="-105.913" gradientUnits="userSpaceOnUse">
<stop stop-color="#8BC6E3"/>
<stop offset="1" stop-color="#007FBF"/>
</linearGradient>
<linearGradient id="paint5_linear" x1="1252.32" y1="1508.4" x2="1591.09" y2="-23.0907" gradientUnits="userSpaceOnUse">
<stop stop-color="#8BC6E3"/>
<stop offset="1" stop-color="#007FBF"/>
</linearGradient>
<linearGradient id="paint6_linear" x1="1268.52" y1="1424.59" x2="1570.42" y2="59.7334" gradientUnits="userSpaceOnUse">
<stop stop-color="#8BC6E3"/>
<stop offset="1" stop-color="#007FBF"/>
</linearGradient>
<linearGradient id="paint7_linear" x1="1284.71" y1="1340.78" x2="1549.76" y2="142.555" gradientUnits="userSpaceOnUse">
<stop stop-color="#8BC6E3"/>
<stop offset="1" stop-color="#007FBF"/>
</linearGradient>
<linearGradient id="paint8_linear" x1="1300.9" y1="1256.97" x2="1529.09" y2="225.377" gradientUnits="userSpaceOnUse">
<stop stop-color="#8BC6E3"/>
<stop offset="1" stop-color="#007FBF"/>
</linearGradient>
<linearGradient id="paint9_linear" x1="1317.1" y1="1173.15" x2="1508.43" y2="308.2" gradientUnits="userSpaceOnUse">
<stop stop-color="#8BC6E3"/>
<stop offset="1" stop-color="#007FBF"/>
</linearGradient>
<linearGradient id="paint10_linear" x1="1333.29" y1="1089.34" x2="1487.76" y2="391.022" gradientUnits="userSpaceOnUse">
<stop stop-color="#8BC6E3"/>
<stop offset="1" stop-color="#007FBF"/>
</linearGradient>
<linearGradient id="paint11_linear" x1="1349.49" y1="1005.53" x2="1467.1" y2="473.842" gradientUnits="userSpaceOnUse">
<stop stop-color="#8BC6E3"/>
<stop offset="1" stop-color="#007FBF"/>
</linearGradient>
</defs>
</svg>
