<svg width="715" height="1624" viewBox="0 0 715 1624" fill="none" xmlns="http://www.w3.org/2000/svg">
<g opacity="0.79" filter="url(#filter0_f)">
<path opacity="0.79" d="M332.5 1218C543.749 993.772 543.749 630.228 332.5 406C121.251 181.772 -221.251 181.772 -432.5 406C-643.749 630.227 -643.749 993.772 -432.5 1218C-221.251 1442.23 121.251 1442.23 332.5 1218Z" stroke="url(#paint0_linear)" stroke-width="0.5" stroke-miterlimit="10"/>
<path opacity="0.79" d="M305.543 1189.39C501.904 980.962 501.904 643.038 305.543 434.613C109.182 226.188 -209.181 226.188 -405.542 434.613C-601.903 643.038 -601.903 980.962 -405.542 1189.39C-209.182 1397.81 109.182 1397.81 305.543 1189.39Z" stroke="url(#paint1_linear)" stroke-width="0.7273" stroke-miterlimit="10"/>
<path opacity="0.79" d="M-49.9771 1305.24C206.667 1305.24 414.718 1084.4 414.718 811.993C414.718 539.581 206.667 318.748 -49.9771 318.748C-306.621 318.748 -514.672 539.581 -514.672 811.993C-514.672 1084.4 -306.621 1305.24 -49.9771 1305.24Z" stroke="url(#paint2_linear)" stroke-width="0.9545" stroke-miterlimit="10"/>
<path opacity="0.79" d="M-49.9772 1264.83C185.644 1264.83 376.653 1062.09 376.653 811.993C376.653 561.895 185.644 359.151 -49.9772 359.151C-285.599 359.151 -476.607 561.895 -476.607 811.993C-476.607 1062.09 -285.599 1264.83 -49.9772 1264.83Z" stroke="url(#paint3_linear)" stroke-width="1.1818" stroke-miterlimit="10"/>
<path opacity="0.79" d="M-49.9771 1224.37C164.589 1224.37 338.53 1039.74 338.53 811.992C338.53 584.243 164.589 399.616 -49.9771 399.616C-264.544 399.616 -438.484 584.243 -438.484 811.992C-438.484 1039.74 -264.544 1224.37 -49.9771 1224.37Z" stroke="url(#paint4_linear)" stroke-width="1.4091" stroke-miterlimit="10"/>
<path opacity="0.79" d="M-49.977 1183.9C143.534 1183.9 300.406 1017.39 300.406 811.992C300.406 606.592 143.534 440.082 -49.977 440.082C-243.488 440.082 -400.36 606.592 -400.36 811.992C-400.36 1017.39 -243.488 1183.9 -49.977 1183.9Z" stroke="url(#paint5_linear)" stroke-width="1.6364" stroke-miterlimit="10"/>
<path opacity="0.79" d="M-49.9773 1143.44C122.479 1143.44 262.283 995.044 262.283 811.992C262.283 628.94 122.479 480.547 -49.9773 480.547C-222.434 480.547 -362.237 628.94 -362.237 811.992C-362.237 995.044 -222.434 1143.44 -49.9773 1143.44Z" stroke="url(#paint6_linear)" stroke-width="1.8636" stroke-miterlimit="10"/>
<path opacity="0.79" d="M-49.9771 1102.97C101.424 1102.97 224.159 972.696 224.159 811.992C224.159 651.289 101.424 521.013 -49.9771 521.013C-201.379 521.013 -324.114 651.289 -324.114 811.992C-324.114 972.696 -201.379 1102.97 -49.9771 1102.97Z" stroke="url(#paint7_linear)" stroke-width="2.0909" stroke-miterlimit="10"/>
<path opacity="0.79" d="M-49.9775 1062.51C80.369 1062.51 186.036 950.347 186.036 811.992C186.036 673.638 80.369 561.479 -49.9775 561.479C-180.324 561.479 -285.991 673.638 -285.991 811.992C-285.991 950.347 -180.324 1062.51 -49.9775 1062.51Z" stroke="url(#paint8_linear)" stroke-width="2.3182" stroke-miterlimit="10"/>
<path opacity="0.79" d="M-49.9769 1022.04C59.3146 1022.04 147.913 927.998 147.913 811.992C147.913 695.986 59.3146 601.944 -49.9769 601.944C-159.268 601.944 -247.867 695.986 -247.867 811.992C-247.867 927.998 -159.268 1022.04 -49.9769 1022.04Z" stroke="url(#paint9_linear)" stroke-width="2.5454" stroke-miterlimit="10"/>
<path opacity="0.79" d="M-49.9768 981.575C38.2597 981.575 109.79 905.651 109.79 811.993C109.79 718.335 38.2597 642.411 -49.9768 642.411C-138.213 642.411 -209.743 718.335 -209.743 811.993C-209.743 905.651 -138.213 981.575 -49.9768 981.575Z" stroke="url(#paint10_linear)" stroke-width="2.7727" stroke-miterlimit="10"/>
<path opacity="0.79" d="M-49.9772 941.109C17.2044 941.109 71.6658 883.301 71.6658 811.992C71.6658 740.683 17.2044 682.876 -49.9772 682.876C-117.159 682.876 -171.62 740.683 -171.62 811.992C-171.62 883.301 -117.159 941.109 -49.9772 941.109Z" stroke="url(#paint11_linear)" stroke-width="3" stroke-miterlimit="10"/>
</g>
<defs>
<filter id="filter0_f" x="-607.179" y="221.572" width="1114.36" height="1180.86" filterUnits="userSpaceOnUse" color-interpolation-filters="sRGB">
<feFlood flood-opacity="0" result="BackgroundImageFix"/>
<feBlend mode="normal" in="SourceGraphic" in2="BackgroundImageFix" result="shape"/>
<feGaussianBlur stdDeviation="8" result="effect1_foregroundBlur"/>
</filter>
<linearGradient id="paint0_linear" x1="-432.5" y1="406" x2="378.059" y2="1169.64" gradientUnits="userSpaceOnUse">
<stop stop-color="#FEBF3D"/>
<stop offset="1" stop-color="#FFF499"/>
</linearGradient>
<linearGradient id="paint1_linear" x1="-405.543" y1="434.613" x2="347.891" y2="1144.44" gradientUnits="userSpaceOnUse">
<stop stop-color="#FEBF3D"/>
<stop offset="1" stop-color="#FFF499"/>
</linearGradient>
<linearGradient id="paint2_linear" x1="-49.9773" y1="318.748" x2="-49.9773" y2="1305.24" gradientUnits="userSpaceOnUse">
<stop stop-color="#FEBF3D"/>
<stop offset="1" stop-color="#FFF499"/>
</linearGradient>
<linearGradient id="paint3_linear" x1="-49.9772" y1="359.151" x2="-49.9772" y2="1264.83" gradientUnits="userSpaceOnUse">
<stop stop-color="#FEBF3D"/>
<stop offset="1" stop-color="#FFF499"/>
</linearGradient>
<linearGradient id="paint4_linear" x1="-49.9771" y1="399.616" x2="-49.9771" y2="1224.37" gradientUnits="userSpaceOnUse">
<stop stop-color="#FEBF3D"/>
<stop offset="1" stop-color="#FFF499"/>
</linearGradient>
<linearGradient id="paint5_linear" x1="-49.977" y1="440.082" x2="-49.977" y2="1183.9" gradientUnits="userSpaceOnUse">
<stop stop-color="#FEBF3D"/>
<stop offset="1" stop-color="#FFF499"/>
</linearGradient>
<linearGradient id="paint6_linear" x1="-49.9773" y1="480.547" x2="-49.9773" y2="1143.44" gradientUnits="userSpaceOnUse">
<stop stop-color="#FEBF3D"/>
<stop offset="1" stop-color="#FFF499"/>
</linearGradient>
<linearGradient id="paint7_linear" x1="-49.9771" y1="521.013" x2="-49.9771" y2="1102.97" gradientUnits="userSpaceOnUse">
<stop stop-color="#FEBF3D"/>
<stop offset="1" stop-color="#FFF499"/>
</linearGradient>
<linearGradient id="paint8_linear" x1="-49.9775" y1="561.479" x2="-49.9775" y2="1062.51" gradientUnits="userSpaceOnUse">
<stop stop-color="#FEBF3D"/>
<stop offset="1" stop-color="#FFF499"/>
</linearGradient>
<linearGradient id="paint9_linear" x1="-49.9769" y1="601.944" x2="-49.9769" y2="1022.04" gradientUnits="userSpaceOnUse">
<stop stop-color="#FEBF3D"/>
<stop offset="1" stop-color="#FFF499"/>
</linearGradient>
<linearGradient id="paint10_linear" x1="-49.9768" y1="642.411" x2="-49.9768" y2="981.575" gradientUnits="userSpaceOnUse">
<stop stop-color="#FEBF3D"/>
<stop offset="1" stop-color="#FFF499"/>
</linearGradient>
<linearGradient id="paint11_linear" x1="-49.9772" y1="682.876" x2="-49.9772" y2="941.109" gradientUnits="userSpaceOnUse">
<stop stop-color="#FEBF3D"/>
<stop offset="1" stop-color="#FFF499"/>
</linearGradient>
</defs>
</svg>
