<svg width="58" height="58" viewBox="0 0 58 58" fill="none" xmlns="http://www.w3.org/2000/svg">
<path d="M44.5 29C44.5 37.5604 37.5604 44.5 29 44.5C20.4396 44.5 13.5 37.5604 13.5 29C13.5 20.4396 20.4396 13.5 29 13.5C37.5604 13.5 44.5 20.4396 44.5 29Z" fill="url(#paint0_linear)" stroke="url(#paint1_linear)"/>
<mask id="path-2-inside-1" fill="white">
<path fill-rule="evenodd" clip-rule="evenodd" d="M34.2304 34.0002C34.0126 34.0007 33.8006 33.93 33.6266 33.7988C33.4527 33.6677 33.3263 33.4833 33.2668 33.2737C33.2073 33.0641 33.2179 32.8409 33.297 32.6379C33.3761 32.4349 33.5194 32.2633 33.7049 32.1492L38.7664 29.0287V28.9717L33.7049 25.8512C33.5902 25.7838 33.4901 25.6941 33.4105 25.5874C33.3309 25.4808 33.2734 25.3593 33.2414 25.2302C33.2093 25.101 33.2033 24.9667 33.2238 24.8352C33.2443 24.7037 33.2909 24.5777 33.3607 24.4644C33.4306 24.3511 33.5223 24.2529 33.6306 24.1756C33.7389 24.0982 33.8615 24.0432 33.9913 24.0139C34.1211 23.9845 34.2555 23.9814 34.3865 24.0046C34.5176 24.0279 34.6427 24.077 34.7544 24.1492L40.0699 27.4262L40.1524 27.5087C40.5472 27.9047 40.7689 28.4411 40.7689 29.0002C40.7689 29.5594 40.5472 30.0957 40.1524 30.4917L40.0699 30.5742L34.7544 33.8512C34.5909 33.9522 34.4094 34.0002 34.2304 34.0002Z"/>
</mask>
<path fill-rule="evenodd" clip-rule="evenodd" d="M34.2304 34.0002C34.0126 34.0007 33.8006 33.93 33.6266 33.7988C33.4527 33.6677 33.3263 33.4833 33.2668 33.2737C33.2073 33.0641 33.2179 32.8409 33.297 32.6379C33.3761 32.4349 33.5194 32.2633 33.7049 32.1492L38.7664 29.0287V28.9717L33.7049 25.8512C33.5902 25.7838 33.4901 25.6941 33.4105 25.5874C33.3309 25.4808 33.2734 25.3593 33.2414 25.2302C33.2093 25.101 33.2033 24.9667 33.2238 24.8352C33.2443 24.7037 33.2909 24.5777 33.3607 24.4644C33.4306 24.3511 33.5223 24.2529 33.6306 24.1756C33.7389 24.0982 33.8615 24.0432 33.9913 24.0139C34.1211 23.9845 34.2555 23.9814 34.3865 24.0046C34.5176 24.0279 34.6427 24.077 34.7544 24.1492L40.0699 27.4262L40.1524 27.5087C40.5472 27.9047 40.7689 28.4411 40.7689 29.0002C40.7689 29.5594 40.5472 30.0957 40.1524 30.4917L40.0699 30.5742L34.7544 33.8512C34.5909 33.9522 34.4094 34.0002 34.2304 34.0002Z" fill="#FFFFFE"/>
<path d="M33.7049 32.1492L34.2286 33.0012L34.2297 33.0005L33.7049 32.1492ZM38.7664 29.0287L39.2912 29.88L39.7664 29.587V29.0287H38.7664ZM38.7664 28.9717H39.7664V28.4135L39.2912 28.1205L38.7664 28.9717ZM33.7049 25.8512L34.2297 25L34.2209 24.9945L34.2119 24.9893L33.7049 25.8512ZM34.7544 24.1492L34.2119 24.9893L34.2207 24.995L34.2297 25.0005L34.7544 24.1492ZM40.0699 27.4262L40.7771 26.7191L40.6943 26.6364L40.5947 26.575L40.0699 27.4262ZM40.1524 27.5087L40.8606 26.8027L40.8596 26.8016L40.1524 27.5087ZM40.1524 30.4917L40.8595 31.1988L40.8606 31.1978L40.1524 30.4917ZM40.0699 30.5742L40.5947 31.4255L40.6943 31.3641L40.777 31.2813L40.0699 30.5742ZM34.7544 33.8512L34.2297 33L34.2289 33.0005L34.7544 33.8512ZM34.2283 33.0002L34.2286 33.0003L33.0246 34.5973C33.3726 34.8596 33.7967 35.0011 34.2325 35.0002L34.2283 33.0002ZM34.2286 33.0003L34.2288 33.0006L32.3049 33.5468C32.4239 33.966 32.6766 34.3349 33.0246 34.5973L34.2286 33.0003ZM34.2288 33.0006L34.2288 33.0009L32.3653 32.2748C32.207 32.6809 32.1858 33.1276 32.3049 33.5468L34.2288 33.0006ZM34.2288 33.0009L34.2286 33.0012L33.1813 31.2973C32.81 31.5255 32.5235 31.8688 32.3653 32.2748L34.2288 33.0009ZM34.2297 33.0005L39.2912 29.88L38.2416 28.1775L33.1801 31.298L34.2297 33.0005ZM39.7664 29.0287V28.9717H37.7664V29.0287H39.7664ZM39.2912 28.1205L34.2297 25L33.1801 26.7025L38.2416 29.823L39.2912 28.1205ZM34.2119 24.9893L34.2119 24.9893L32.6092 26.1856C32.7684 26.3989 32.9686 26.5783 33.198 26.7132L34.2119 24.9893ZM34.2119 24.9893L34.2119 24.9893L32.2708 25.471C32.3349 25.7294 32.45 25.9723 32.6092 26.1856L34.2119 24.9893ZM34.2119 24.9893H34.2119L32.2358 24.6812C32.1948 24.9442 32.2067 25.2127 32.2708 25.471L34.2119 24.9893ZM34.2119 24.9893L34.2119 24.9893L32.5095 23.9395C32.3698 24.1661 32.2768 24.4182 32.2358 24.6812L34.2119 24.9893ZM34.2119 24.9893V24.9893L33.0493 23.3619C32.8328 23.5166 32.6492 23.713 32.5095 23.9395L34.2119 24.9893ZM34.2119 24.9893L34.2119 24.9893L33.7708 23.0385C33.5112 23.0972 33.2659 23.2072 33.0493 23.3619L34.2119 24.9893ZM34.2119 24.9893H34.2119L34.5612 23.02C34.2991 22.9735 34.0304 22.9798 33.7708 23.0385L34.2119 24.9893ZM34.2119 24.9893L34.2119 24.9893L35.297 23.3092C35.0734 23.1648 34.8232 23.0665 34.5612 23.02L34.2119 24.9893ZM34.2297 25.0005L39.5452 28.2775L40.5947 26.575L35.2792 23.298L34.2297 25.0005ZM39.3628 28.1333L39.4453 28.2158L40.8596 26.8016L40.7771 26.7191L39.3628 28.1333ZM39.4443 28.2148C39.6522 28.4233 39.7689 28.7058 39.7689 29.0002H41.7689C41.7689 28.1764 41.4423 27.3861 40.8606 26.8027L39.4443 28.2148ZM39.7689 29.0002C39.7689 29.2947 39.6522 29.5772 39.4443 29.7857L40.8606 31.1978C41.4423 30.6143 41.7689 29.8241 41.7689 29.0002H39.7689ZM39.4453 29.7846L39.3628 29.8671L40.777 31.2813L40.8595 31.1988L39.4453 29.7846ZM39.5452 29.723L34.2297 33L35.2792 34.7025L40.5947 31.4255L39.5452 29.723ZM34.2289 33.0005C34.228 33.001 34.2283 33.0007 34.2293 33.0004C34.2301 33.0002 34.2306 33.0002 34.2304 33.0002V35.0002C34.589 35.0002 34.9534 34.9037 35.28 34.702L34.2289 33.0005Z" fill="url(#paint2_linear)" mask="url(#path-2-inside-1)"/>
<path d="M23.7696 33.4998H23.7694C23.6802 33.4998 23.5902 33.476 23.5082 33.4254L23.5078 33.4252L18.2421 30.1789L18.2015 30.1383C18.2014 30.1382 18.2013 30.1381 18.2012 30.138C17.9001 29.8358 17.731 29.4265 17.731 28.9998C17.731 28.573 17.9002 28.1636 18.2015 27.8613L18.2421 27.8207L23.5078 24.5744L23.5079 24.5744C23.6207 24.5048 23.7565 24.4829 23.8855 24.5135C24.0145 24.5441 24.126 24.6246 24.1956 24.7375C24.2652 24.8503 24.2871 24.9861 24.2565 25.1151L24.743 25.2305L24.2565 25.1151C24.2259 25.2441 24.1453 25.3556 24.0325 25.4252C24.0325 25.4252 24.0325 25.4252 24.0325 25.4252L18.971 28.5457L18.7334 28.6922V28.9713V29.0283V29.3074L18.971 29.4539L24.0324 32.5743C24.125 32.6314 24.1964 32.7172 24.2358 32.8187C24.2752 32.9201 24.2805 33.0316 24.2508 33.1363C24.221 33.241 24.158 33.3332 24.0711 33.3988C23.9843 33.4644 23.8784 33.4998 23.7696 33.4998Z" fill="#FFFFFE" stroke="url(#paint3_linear)"/>
<mask id="path-5-inside-2" fill="white">
<path fill-rule="evenodd" clip-rule="evenodd" d="M25.7501 38.5008C25.5879 38.5009 25.4282 38.4614 25.2846 38.386C25.1411 38.3105 25.0181 38.2013 24.9262 38.0677C24.8342 37.9341 24.7762 37.7801 24.757 37.6191C24.7378 37.4581 24.7581 37.2948 24.8161 37.1433L31.3161 20.1433C31.3617 20.0189 31.4315 19.9048 31.5216 19.8076C31.6116 19.7104 31.7201 19.6321 31.8407 19.5772C31.9612 19.5223 32.0915 19.4919 32.224 19.4878C32.3564 19.4837 32.4883 19.5059 32.6121 19.5532C32.7359 19.6005 32.849 19.6719 32.9449 19.7634C33.0408 19.8548 33.1176 19.9643 33.1709 20.0856C33.2241 20.207 33.2527 20.3377 33.2549 20.4702C33.2572 20.6026 33.2331 20.7343 33.1841 20.8573L26.6841 37.8573C26.6119 38.0466 26.4839 38.2094 26.3171 38.3243C26.1504 38.4392 25.9526 38.5008 25.7501 38.5008Z"/>
</mask>
<path fill-rule="evenodd" clip-rule="evenodd" d="M25.7501 38.5008C25.5879 38.5009 25.4282 38.4614 25.2846 38.386C25.1411 38.3105 25.0181 38.2013 24.9262 38.0677C24.8342 37.9341 24.7762 37.7801 24.757 37.6191C24.7378 37.4581 24.7581 37.2948 24.8161 37.1433L31.3161 20.1433C31.3617 20.0189 31.4315 19.9048 31.5216 19.8076C31.6116 19.7104 31.7201 19.6321 31.8407 19.5772C31.9612 19.5223 32.0915 19.4919 32.224 19.4878C32.3564 19.4837 32.4883 19.5059 32.6121 19.5532C32.7359 19.6005 32.849 19.6719 32.9449 19.7634C33.0408 19.8548 33.1176 19.9643 33.1709 20.0856C33.2241 20.207 33.2527 20.3377 33.2549 20.4702C33.2572 20.6026 33.2331 20.7343 33.1841 20.8573L26.6841 37.8573C26.6119 38.0466 26.4839 38.2094 26.3171 38.3243C26.1504 38.4392 25.9526 38.5008 25.7501 38.5008Z" fill="#FFFFFE"/>
<path d="M24.8161 37.1433L25.75 37.5008L25.7501 37.5005L24.8161 37.1433ZM31.3161 20.1433L32.2502 20.5005L32.2551 20.4873L31.3161 20.1433ZM33.1841 20.8573L32.255 20.4873L32.25 20.5002L33.1841 20.8573ZM26.6841 37.8573L25.75 37.5002L25.7498 37.5008L26.6841 37.8573ZM25.75 37.5008H25.75L24.8193 39.2711C25.1064 39.422 25.4258 39.5009 25.7502 39.5008L25.75 37.5008ZM25.75 37.5008V37.5009L24.1023 38.6345C24.2862 38.9017 24.5322 39.1202 24.8193 39.2711L25.75 37.5008ZM25.75 37.5009L25.75 37.5008L23.764 37.7374C23.8024 38.0594 23.9185 38.3673 24.1023 38.6345L25.75 37.5009ZM25.75 37.5008L23.8822 36.7858C23.7662 37.0887 23.7257 37.4153 23.764 37.7374L25.75 37.5008ZM25.7501 37.5005L32.2501 20.5005L30.382 19.7862L23.882 36.7862L25.7501 37.5005ZM32.2551 20.4873V20.4873L30.788 19.128C30.6079 19.3223 30.4682 19.5506 30.3771 19.7994L32.2551 20.4873ZM32.2551 20.4873L32.2551 20.4873L31.4263 18.6671C31.1851 18.7769 30.9681 18.9336 30.788 19.128L32.2551 20.4873ZM32.2551 20.4873L32.2551 20.4873L32.1929 18.4883C31.928 18.4965 31.6674 18.5573 31.4263 18.6671L32.2551 20.4873ZM32.2551 20.4873L32.9691 18.6191C32.7216 18.5245 32.4577 18.48 32.1929 18.4883L32.2551 20.4873ZM32.2551 20.4873H32.2551L33.6348 19.0394C33.4429 18.8566 33.2167 18.7137 32.9691 18.6191L32.2551 20.4873ZM32.2551 20.4873V20.4873L34.0867 19.684C33.9802 19.4413 33.8266 19.2222 33.6348 19.0394L32.2551 20.4873ZM32.2551 20.4873L32.2551 20.4873L34.2548 20.453C34.2502 20.1881 34.1931 19.9267 34.0867 19.684L32.2551 20.4873ZM32.2551 20.4873V20.4873L34.1131 21.2274C34.2112 20.9812 34.2593 20.718 34.2548 20.453L32.2551 20.4873ZM32.25 20.5002L25.75 37.5002L27.6181 38.2145L34.1181 21.2145L32.25 20.5002ZM25.7498 37.5008L25.7498 37.5009L26.8845 39.1478C27.2181 38.918 27.474 38.5923 27.6184 38.2139L25.7498 37.5008ZM25.7498 37.5009V37.5008L25.7504 39.5008C26.1554 39.5007 26.5509 39.3776 26.8845 39.1478L25.7498 37.5009Z" fill="url(#paint4_linear)" mask="url(#path-5-inside-2)"/>
<circle cx="29" cy="29" r="28.5" stroke="url(#paint5_linear)"/>
<defs>
<linearGradient id="paint0_linear" x1="13.9231" y1="29" x2="45" y2="29" gradientUnits="userSpaceOnUse">
<stop offset="0.0001" stop-color="#92D0EE"/>
<stop offset="0.885417" stop-color="#A6E2FF"/>
</linearGradient>
<linearGradient id="paint1_linear" x1="13.9231" y1="29" x2="45" y2="29" gradientUnits="userSpaceOnUse">
<stop offset="0.0001" stop-color="#92D0EE"/>
<stop offset="0.885417" stop-color="#A6E2FF"/>
</linearGradient>
<linearGradient id="paint2_linear" x1="33.4299" y1="28.9947" x2="40.7689" y2="28.9947" gradientUnits="userSpaceOnUse">
<stop offset="0.0001" stop-color="#92D0EE"/>
<stop offset="0.885417" stop-color="#A6E2FF"/>
</linearGradient>
<linearGradient id="paint3_linear" x1="17.4484" y1="28.9999" x2="24.77" y2="28.9999" gradientUnits="userSpaceOnUse">
<stop offset="0.0001" stop-color="#92D0EE"/>
<stop offset="0.885417" stop-color="#A6E2FF"/>
</linearGradient>
<linearGradient id="paint4_linear" x1="24.9953" y1="28.9941" x2="33.2551" y2="28.9941" gradientUnits="userSpaceOnUse">
<stop offset="0.0001" stop-color="#92D0EE"/>
<stop offset="0.885417" stop-color="#A6E2FF"/>
</linearGradient>
<linearGradient id="paint5_linear" x1="1.67308" y1="29" x2="58" y2="29" gradientUnits="userSpaceOnUse">
<stop offset="0.0001" stop-color="#92D0EE"/>
<stop offset="0.885417" stop-color="#A6E2FF"/>
</linearGradient>
</defs>
</svg>
