<svg width="58" height="58" viewBox="0 0 58 58" fill="none" xmlns="http://www.w3.org/2000/svg">
<circle cx="29" cy="29" r="28.5" stroke="#0041A0"/>
<path d="M34.2652 41.8348C33.2879 41.8348 32.4172 41.5042 31.5785 41.1895C30.8599 40.9162 30.1825 40.6602 29.5399 40.6602C28.9692 40.6602 28.3185 40.9042 27.6292 41.1602C26.7959 41.4682 25.8519 41.8215 24.8265 41.8215C23.1412 41.8215 21.6305 40.8562 20.2012 38.8762C20.1412 38.7922 14.3225 30.2468 17.1492 23.9015C18.6972 20.4268 20.9279 18.6628 23.7785 18.6628C25.2825 18.6628 26.6705 19.1348 27.7852 19.5148C28.4092 19.7268 28.9985 19.9268 29.3092 19.9268C29.6759 19.9268 30.2652 19.7122 30.8852 19.4815C31.9199 19.1015 33.2105 18.6255 34.6905 18.6255C36.8359 18.6255 38.7772 19.6162 40.6279 21.6535C40.6903 21.7231 40.7376 21.8049 40.7667 21.8937C40.7959 21.9825 40.8063 22.0764 40.7972 22.1695C40.7869 22.2623 40.7575 22.3521 40.711 22.4331C40.6644 22.5141 40.6016 22.5846 40.5265 22.6402C38.5759 24.0615 37.5865 25.7055 37.5865 27.5282C37.5865 29.7855 38.7012 31.4442 41.3079 33.0668C41.4451 33.1514 41.5467 33.2831 41.5938 33.4372C41.641 33.5913 41.6303 33.7573 41.5639 33.9042C39.1132 39.3868 36.8625 41.8348 34.2652 41.8348Z" fill="#0041A0"/>
<path d="M29.3722 18.2814C29.2122 18.2814 29.0508 18.2708 28.8922 18.2521C28.7349 18.2334 28.5895 18.1589 28.4824 18.0423C28.3752 17.9256 28.3134 17.7744 28.3082 17.6161C28.1322 13.1548 31.9135 10.4228 34.7082 10.1694C34.8742 10.1553 35.0396 10.2032 35.1723 10.3039C35.3051 10.4047 35.3958 10.551 35.4268 10.7148C35.7348 12.4321 35.1588 14.3201 33.8428 15.8934C32.5922 17.3894 30.9202 18.2814 29.3722 18.2814Z" fill="#0041A0"/>
</svg>
