<svg width="58" height="58" viewBox="0 0 58 58" fill="none" xmlns="http://www.w3.org/2000/svg">
<circle cx="29" cy="29" r="28.5" stroke="#0041A0"/>
<path d="M33 33.5H30V31.5H28V33.5H25C24.8674 33.5 24.7402 33.5527 24.6464 33.6464C24.5527 33.7402 24.5 33.8674 24.5 34V35C24.5 35.1326 24.5527 35.2598 24.6464 35.3536C24.7402 35.4473 24.8674 35.5 25 35.5H33C33.1326 35.5 33.2598 35.4473 33.3536 35.3536C33.4473 35.2598 33.5 35.1326 33.5 35V34C33.5 33.8674 33.4473 33.7402 33.3536 33.6464C33.2598 33.5527 33.1326 33.5 33 33.5Z" fill="#0041A0"/>
<path d="M41 13H17C16.4477 13 16 13.4477 16 14V31C16 31.5523 16.4477 32 17 32H41C41.5523 32 42 31.5523 42 31V14C42 13.4477 41.5523 13 41 13Z" fill="url(#paint0_linear)"/>
<path d="M38.5 43H14L15.5 37.5H37L38.5 43Z" fill="#0041A0"/>
<path d="M43.5469 39.4049C43.2064 38.7534 42.6958 38.2063 42.0694 37.8214C41.7988 37.64 41.4856 37.5322 41.1606 37.5084C40.8356 37.4847 40.5101 37.5458 40.2159 37.6859C39.1814 38.2499 39.0239 39.8889 39.8569 41.4174C40.1609 42.0392 40.6653 42.5407 41.2889 42.8409C41.5313 42.9449 41.7922 42.9989 42.0559 42.9999C42.3801 42.999 42.6988 42.9161 42.9824 42.7589C43.8999 42.2579 44.4314 41.0269 43.5469 39.4049Z" fill="#0041A0"/>
<path d="M21.5 21.5C22.8807 21.5 24 20.3807 24 19C24 17.6193 22.8807 16.5 21.5 16.5C20.1193 16.5 19 17.6193 19 19C19 20.3807 20.1193 21.5 21.5 21.5Z" fill="#E6EEF3"/>
<path d="M21.4999 19.9999C21.4012 19.9999 21.3046 19.9707 21.2224 19.9159L20.0024 19.1024L20.5569 18.2704L21.3499 18.7999L23.5759 15.2349L24.4259 15.7649L21.9259 19.7649C21.8808 19.8371 21.818 19.8965 21.7435 19.9377C21.6689 19.9788 21.5851 20.0002 21.4999 19.9999Z" fill="#FEBF3D"/>
<path d="M21.5 29.5C22.8807 29.5 24 28.3807 24 27C24 25.6193 22.8807 24.5 21.5 24.5C20.1193 24.5 19 25.6193 19 27C19 28.3807 20.1193 29.5 21.5 29.5Z" fill="#E6EEF3"/>
<path d="M21.4999 27.9998C21.4012 27.9999 21.3046 27.9706 21.2224 27.9158L20.0024 27.1023L20.5569 26.2703L21.3499 26.7998L23.5769 23.2363L24.4269 23.7663L21.9269 27.7663C21.8815 27.8384 21.8185 27.8977 21.7438 27.9385C21.669 27.9794 21.5851 28.0005 21.4999 27.9998Z" fill="#FEBF3D"/>
<path d="M39.5 17.5H27V18.5H39.5V17.5Z" fill="#E6EEF3"/>
<path d="M36 19.5H27V20.5H36V19.5Z" fill="#E6EEF3"/>
<path d="M39.5 25.5H27V26.5H39.5V25.5Z" fill="#E6EEF3"/>
<path d="M33 27.5H27V28.5H33V27.5Z" fill="#E6EEF3"/>
<defs>
<linearGradient id="paint0_linear" x1="16" y1="22.5" x2="42" y2="22.5" gradientUnits="userSpaceOnUse">
<stop stop-color="#010B28"/>
<stop offset="0.01" stop-color="#010E33"/>
<stop offset="1" stop-color="#021F59"/>
</linearGradient>
</defs>
</svg>
