<svg width="58" height="58" viewBox="0 0 58 58" fill="none" xmlns="http://www.w3.org/2000/svg">
<circle cx="29" cy="29" r="28.5" stroke="#0041A0"/>
<path d="M40.6665 46H31.3332C31.1564 46 30.9868 45.9298 30.8618 45.8047C30.7367 45.6797 30.6665 45.5101 30.6665 45.3333V14.6667C30.6665 14.4899 30.7367 14.3203 30.8618 14.1953C30.9868 14.0702 31.1564 14 31.3332 14H40.6665C40.8433 14 41.0129 14.0702 41.1379 14.1953C41.2629 14.3203 41.3332 14.4899 41.3332 14.6667V45.3333C41.3332 45.5101 41.2629 45.6797 41.1379 45.8047C41.0129 45.9298 40.8433 46 40.6665 46ZM31.9998 44.6667H39.9998V15.3333H31.9998V44.6667Z" fill="#0041A0"/>
<path d="M31.3335 19.3335H34.6668V20.6668H31.3335V19.3335Z" fill="#0041A0"/>
<path d="M31.3335 23.3335H34.6668V24.6668H31.3335V23.3335Z" fill="#0041A0"/>
<path d="M31.3335 27.3335H34.6668V28.6668H31.3335V27.3335Z" fill="#0041A0"/>
<path d="M31.3335 31.3335H34.6668V32.6668H31.3335V31.3335Z" fill="#0041A0"/>
<path d="M31.3335 35.3335H34.6668V36.6668H31.3335V35.3335Z" fill="#0041A0"/>
<path d="M31.3335 39.3335H34.6668V40.6668H31.3335V39.3335Z" fill="#0041A0"/>
<path d="M22 44.6667H19.3333C17.4953 44.6667 16 43.1714 16 41.3334V22.0001C16 21.8687 16.0393 21.7394 16.112 21.6301L20.112 15.6301C20.3593 15.2587 20.974 15.2587 21.2213 15.6301L25.2213 21.6301C25.294 21.7394 25.3333 21.8687 25.3333 22.0001V41.3334C25.3333 43.1714 23.838 44.6667 22 44.6667ZM17.3333 22.2021V41.3334C17.3333 42.4361 18.2307 43.3334 19.3333 43.3334H22C23.1027 43.3334 24 42.4361 24 41.3334V22.2021L20.6667 17.2021L17.3333 22.2021Z" fill="#0041A0"/>
<path d="M24.3571 41H16.6429C16.4724 41 16.3088 40.842 16.1883 40.5607C16.0677 40.2794 16 39.8978 16 39.5C16 39.1022 16.0677 38.7206 16.1883 38.4393C16.3088 38.158 16.4724 38 16.6429 38H24.3571C24.5276 38 24.6912 38.158 24.8117 38.4393C24.9323 38.7206 25 39.1022 25 39.5C25 39.8978 24.9323 40.2794 24.8117 40.5607C24.6912 40.842 24.5276 41 24.3571 41Z" fill="#0041A0"/>
<path d="M24.6667 37.9998H16.6667C16.4899 37.9998 16.3203 37.9296 16.1953 37.8046C16.0702 37.6796 16 37.51 16 37.3332C16 37.1564 16.0702 36.9868 16.1953 36.8618C16.3203 36.7367 16.4899 36.6665 16.6667 36.6665H24.6667C24.8435 36.6665 25.013 36.7367 25.1381 36.8618C25.2631 36.9868 25.3333 37.1564 25.3333 37.3332C25.3333 37.51 25.2631 37.6796 25.1381 37.8046C25.013 37.9296 24.8435 37.9998 24.6667 37.9998Z" fill="#0041A0"/>
<path d="M19.3332 38C19.1564 38 18.9868 37.9298 18.8618 37.8047C18.7367 37.6797 18.6665 37.5101 18.6665 37.3333V24.6667C18.6665 24.4899 18.7367 24.3203 18.8618 24.1953C18.9868 24.0702 19.1564 24 19.3332 24C19.51 24 19.6796 24.0702 19.8046 24.1953C19.9296 24.3203 19.9998 24.4899 19.9998 24.6667V37.3333C19.9998 37.5101 19.9296 37.6797 19.8046 37.8047C19.6796 37.9298 19.51 38 19.3332 38Z" fill="#0041A0"/>
<path d="M21.5 38C21.1022 38 20.7206 37.9298 20.4393 37.8047C20.158 37.6797 20 37.5101 20 37.3333V24.6667C20 24.4899 20.158 24.3203 20.4393 24.1953C20.7206 24.0702 21.1022 24 21.5 24C21.8978 24 22.2794 24.0702 22.5607 24.1953C22.842 24.3203 23 24.4899 23 24.6667V37.3333C23 37.5101 22.842 37.6797 22.5607 37.8047C22.2794 37.9298 21.8978 38 21.5 38Z" fill="#0041A0"/>
<path d="M18.6665 18.6665H22.6665V19.9998H18.6665V18.6665Z" fill="#0041A0"/>
<path d="M18.6667 25.3333C17.196 25.3333 16 24.1373 16 22.6667C16 22.4899 16.0702 22.3203 16.1953 22.1953C16.3203 22.0702 16.4899 22 16.6667 22C16.8435 22 17.013 22.0702 17.1381 22.1953C17.2631 22.3203 17.3333 22.4899 17.3333 22.6667C17.3333 23.402 17.9313 24 18.6667 24C19.402 24 20 23.402 20 22.6667C20 22.4899 20.0702 22.3203 20.1953 22.1953C20.3203 22.0702 20.4899 22 20.6667 22C20.8435 22 21.013 22.0702 21.1381 22.1953C21.2631 22.3203 21.3333 22.4899 21.3333 22.6667C21.3333 24.1373 20.1373 25.3333 18.6667 25.3333Z" fill="#0041A0"/>
<path d="M22.6667 25.3333C21.196 25.3333 20 24.1373 20 22.6667C20 22.4899 20.0702 22.3203 20.1953 22.1953C20.3203 22.0702 20.4899 22 20.6667 22C20.8435 22 21.013 22.0702 21.1381 22.1953C21.2631 22.3203 21.3333 22.4899 21.3333 22.6667C21.3333 23.402 21.9313 24 22.6667 24C23.402 24 24 23.402 24 22.6667C24 22.4899 24.0702 22.3203 24.1953 22.1953C24.3203 22.0702 24.4899 22 24.6667 22C24.8435 22 25.013 22.0702 25.1381 22.1953C25.2631 22.3203 25.3333 22.4899 25.3333 22.6667C25.3333 24.1373 24.1373 25.3333 22.6667 25.3333Z" fill="#0041A0"/>
</svg>
