<svg width="254" height="190" viewBox="0 0 254 190" fill="none" xmlns="http://www.w3.org/2000/svg">
<path d="M254 166.318H0V166.445H254V166.318Z" fill="#E6E6E6"/>
<path d="M53.8429 172.343H26.2382V172.47H53.8429V172.343Z" fill="#E6E6E6"/>
<path d="M127.508 169.585H117.114V169.712H127.508V169.585Z" fill="#E6E6E6"/>
<path d="M92.0903 169.585H76.8807V169.712H92.0903V169.585Z" fill="#E6E6E6"/>
<path d="M217.886 171.048H185.71V171.175H217.886V171.048Z" fill="#E6E6E6"/>
<path d="M121.524 171.048H114.264V171.175H121.524V171.048Z" fill="#E6E6E6"/>
<path d="M65.532 172.343H58.7604V172.47H65.532V172.343Z" fill="#E6E6E6"/>
<path d="M226.36 171.048H222.037V171.175H226.36V171.048Z" fill="#E6E6E6"/>
<path d="M120.396 143.661H22.3062C21.5378 143.66 20.8013 143.354 20.2584 142.81C19.7156 142.266 19.4106 141.529 19.4106 140.761V2.8743C19.4173 2.11028 19.7252 1.37976 20.2674 0.841398C20.8095 0.30304 21.5422 0.000332242 22.3062 -0.000976562H120.396C121.165 -0.000976562 121.903 0.30463 122.447 0.848613C122.991 1.3926 123.297 2.13039 123.297 2.8997V140.761C123.297 141.53 122.991 142.268 122.447 142.812C121.903 143.356 121.165 143.661 120.396 143.661ZM22.3062 0.100624C21.5715 0.10197 20.8673 0.394789 20.3482 0.914809C19.8292 1.43483 19.5376 2.13956 19.5376 2.8743V140.761C19.5376 141.495 19.8292 142.2 20.3482 142.72C20.8673 143.24 21.5715 143.533 22.3062 143.534H120.396C121.131 143.533 121.836 143.24 122.356 142.721C122.876 142.201 123.168 141.496 123.17 140.761V2.8743C123.168 2.13909 122.876 1.43437 122.356 0.914499C121.836 0.394624 121.131 0.101967 120.396 0.100624H22.3062Z" fill="#E6E6E6"/>
<path d="M230.281 143.661H132.187C131.418 143.66 130.681 143.354 130.137 142.81C129.593 142.267 129.287 141.53 129.286 140.761V2.8743C129.294 2.10982 129.603 1.3793 130.146 0.841081C130.689 0.302863 131.422 0.000317969 132.187 -0.000976562H230.281C231.045 0.00166732 231.776 0.304966 232.317 0.843181C232.858 1.3814 233.165 2.11116 233.172 2.8743V140.761C233.172 141.528 232.868 142.265 232.326 142.808C231.784 143.352 231.049 143.659 230.281 143.661ZM132.187 0.100624C131.451 0.101967 130.747 0.394624 130.227 0.914499C129.707 1.43437 129.414 2.13909 129.413 2.8743V140.761C129.414 141.496 129.707 142.201 130.227 142.721C130.747 143.24 131.451 143.533 132.187 143.534H230.281C231.017 143.533 231.721 143.24 232.241 142.721C232.761 142.201 233.054 141.496 233.055 140.761V2.8743C233.054 2.13909 232.761 1.43437 232.241 0.914499C231.721 0.394624 231.017 0.101967 230.281 0.100624H132.187Z" fill="#E6E6E6"/>
<path d="M209.377 15.5237H96.1492V81.3402H209.377V15.5237Z" fill="#E6E6E6"/>
<path d="M210.906 15.5237H97.6782V81.3402H210.906V15.5237Z" fill="#F5F5F5"/>
<path d="M208.158 78.2513V18.6121L100.427 18.6121V78.2513H208.158Z" fill="white"/>
<path d="M208.163 78.2513V18.6121H207.005V78.2513H208.163Z" fill="#E6E6E6"/>
<path d="M209.774 59.7146H98.8162V63.8599H209.774V59.7146Z" fill="#F5F5F5"/>
<path d="M128.524 122.483H109.931V163.707H128.524V122.483Z" fill="#E6E6E6"/>
<path d="M195.346 163.707H113.497V166.318H195.346V163.707Z" fill="#E6E6E6"/>
<path d="M128.519 163.707H198.918V122.483H128.519V163.707Z" fill="#F5F5F5"/>
<path d="M135.834 141.076H191.613V127.558H135.834V141.076Z" fill="#E6E6E6"/>
<path d="M135.834 158.627H191.613V145.11H135.834V158.627Z" fill="#E6E6E6"/>
<path d="M172.085 133.39H155.362C154.91 133.39 154.544 133.756 154.544 134.208V134.426C154.544 134.878 154.91 135.244 155.362 135.244H172.085C172.537 135.244 172.903 134.878 172.903 134.426V134.208C172.903 133.756 172.537 133.39 172.085 133.39Z" fill="#F5F5F5"/>
<path d="M172.085 150.946H155.362C154.91 150.946 154.544 151.312 154.544 151.764V151.982C154.544 152.434 154.91 152.8 155.362 152.8H172.085C172.537 152.8 172.903 152.434 172.903 151.982V151.764C172.903 151.312 172.537 150.946 172.085 150.946Z" fill="#F5F5F5"/>
<path d="M72.8371 166.318H33.2283L27.7673 34.9141H67.3761L72.8371 166.318Z" fill="#E6E6E6"/>
<path d="M78.5723 166.318H34.2442L28.7832 34.9141H73.1113L78.5723 166.318Z" fill="#F5F5F5"/>
<path d="M38.6233 161.746L33.5433 39.4858H68.7274L73.8124 161.746H38.6233Z" fill="white"/>
<path d="M144.744 116.123C145.252 102.244 145.76 83.0166 144.689 76.057L142.936 74.7007C142.936 74.7007 143.317 75.9961 143.52 97.261C143.723 118.526 143.972 112.963 143.759 116.123H144.744Z" fill="#E0E0E0"/>
<path d="M148.006 70.1487C151.247 65.7545 158.069 62.6303 165.136 62.6456C167.909 62.6456 156.875 67.756 152.41 73.3898C148.941 77.7636 145.115 85.1246 143.866 89.2089C144.465 80.6135 144.78 74.5378 148.006 70.1487Z" fill="#E0E0E0"/>
<path d="M141.503 81.5939C138.527 77.0219 131.897 73.5015 124.846 73.1052C122.077 72.9477 132.791 78.6932 136.921 84.5708C140.127 89.1428 143.525 96.712 144.541 100.867C144.429 92.2517 144.485 86.171 141.503 81.5939Z" fill="#E0E0E0"/>
<path d="M142.834 62.8133C140.122 57.4793 133.792 52.3332 126.909 50.2403C124.201 49.4173 135.412 58.8052 138.618 65.9883C141.107 71.5763 144.125 78.5968 144.917 83.0317C145.212 74.2839 145.542 68.1524 142.834 62.8133Z" fill="#E0E0E0"/>
<path d="M144.089 122.483C145.739 122.483 147.325 121.851 148.523 120.717C149.721 119.583 150.44 118.034 150.531 116.387L151.1 106.481H137.079L137.653 116.387C137.742 118.033 138.46 119.583 139.657 120.717C140.854 121.851 142.44 122.483 144.089 122.483Z" fill="#F0F0F0"/>
<path d="M136.174 108.742H152.009L152.461 104.632H135.717L136.174 108.742Z" fill="#EBEBEB"/>
<path d="M203.49 40.7205H213.975V12.2725H203.49V40.7205Z" fill="#E6E6E6"/>
<path d="M203.49 12.2773H198.293V38.4393H203.49V12.2773Z" fill="#F5F5F5"/>
<path d="M187.808 40.7205H198.293V12.2725H187.808V40.7205Z" fill="#E6E6E6"/>
<path d="M187.808 12.2773H182.611V38.4393H187.808V12.2773Z" fill="#F5F5F5"/>
<path d="M172.126 40.7205H182.611V12.2725H172.126V40.7205Z" fill="#E6E6E6"/>
<path d="M172.126 12.2773H166.929V38.4393H172.126V12.2773Z" fill="#F5F5F5"/>
<path d="M156.439 40.7205H166.924V12.2725H156.439V40.7205Z" fill="#E6E6E6"/>
<path d="M156.439 12.2773H151.242V38.4393H156.439V12.2773Z" fill="#F5F5F5"/>
<path d="M140.762 40.7205H151.247V12.2725H140.762V40.7205Z" fill="#E6E6E6"/>
<path d="M140.757 12.2773H135.56V38.4393H140.757V12.2773Z" fill="#F5F5F5"/>
<path d="M125.075 40.7205H135.56V12.2725H125.075V40.7205Z" fill="#E6E6E6"/>
<path d="M125.075 12.2773H119.878V38.4393H125.075V12.2773Z" fill="#F5F5F5"/>
<path d="M109.393 40.7205H119.878V12.2725H109.393V40.7205Z" fill="#E6E6E6"/>
<path d="M109.393 12.2773H104.196V38.4393H109.393V12.2773Z" fill="#F5F5F5"/>
<path d="M93.7107 40.7205H104.196V12.2725H93.7107V40.7205Z" fill="#E6E6E6"/>
<path d="M127 189.26C181.398 189.26 225.496 186.685 225.496 183.509C225.496 180.333 181.398 177.759 127 177.759C72.6021 177.759 28.5039 180.333 28.5039 183.509C28.5039 186.685 72.6021 189.26 127 189.26Z" fill="#F5F5F5"/>
<path d="M179.029 83.5804L181.188 86.8824L184.399 86.2169L181.976 82.1123L179.029 83.5804Z" fill="#9F5B53"/>
<path d="M185.151 55.2795C185.608 55.8333 185.989 56.326 186.38 56.8645C186.771 57.403 187.147 57.9211 187.518 58.4596C188.26 59.5315 188.966 60.6339 189.626 61.7667C190.287 62.8995 190.927 64.0578 191.486 65.2719C191.785 65.8663 192.039 66.4962 192.314 67.1109C192.588 67.7255 192.822 68.3707 193.02 69.0362L193.182 69.5442L193.264 69.7931C193.309 69.9404 193.355 70.0979 193.385 70.2452C193.497 70.7725 193.535 71.3128 193.497 71.8505C193.43 72.6928 193.247 73.5219 192.954 74.3143C192.456 75.6348 191.819 76.8985 191.054 78.0837C189.627 80.2838 187.972 82.3272 186.116 84.1797L183.896 82.4423C185.117 80.3591 186.232 78.216 187.239 76.0212C187.701 75.0192 188.07 73.9768 188.341 72.9071C188.442 72.5055 188.488 72.0919 188.478 71.6778C188.478 71.5901 188.459 71.5035 188.422 71.4238L188.341 71.2307L188.173 70.8447C187.222 68.7076 186.101 66.6503 184.821 64.6928C184.18 63.6768 183.505 62.6963 182.824 61.7057C182.143 60.7151 181.402 59.7245 180.731 58.8254L185.151 55.2795Z" fill="#9F5B53"/>
<path d="M183.896 52.7804C187.396 53.583 191.409 63.1182 191.409 63.1182L184.404 67.934C182.655 65.428 181.103 62.7903 179.761 60.0448C177.683 55.6811 180.34 51.9625 183.896 52.7804Z" fill="#FF725E"/>
<path opacity="0.8" d="M183.896 52.7804C187.396 53.583 191.409 63.1182 191.409 63.1182L184.404 67.934C182.655 65.428 181.103 62.7903 179.761 60.0448C177.683 55.6811 180.34 51.9625 183.896 52.7804Z" fill="white"/>
<path d="M181.407 58.8608L184.729 67.7051L184.399 67.9337C184.399 67.9337 182.961 65.9017 181.407 63.1941V58.8608Z" fill="#FF725E"/>
<path opacity="0.6" d="M181.407 58.8608L184.729 67.7051L184.399 67.9337C184.399 67.9337 182.961 65.9017 181.407 63.1941V58.8608Z" fill="white"/>
<path d="M172.537 180.156H168.803L168.432 171.515H172.166L172.537 180.156Z" fill="#9F5B53"/>
<path d="M194.945 180.156H191.211L189.337 171.515H193.065L194.945 180.156Z" fill="#9F5B53"/>
<path d="M168.432 171.52L168.625 175.97H172.359L172.166 171.52H168.432Z" fill="#8A4743"/>
<path d="M193.07 171.52H189.337L190.302 175.97H194.036L193.07 171.52Z" fill="#8A4743"/>
<path d="M169.865 85.2313C169.865 85.2313 174.102 113.75 176.423 124.434C178.963 136.118 188.564 175.112 188.564 175.112H195.402C195.402 175.112 189.072 137.078 187.62 125.475C186.045 112.902 182.748 85.2109 182.748 85.2109L169.865 85.2313Z" fill="#FF725E"/>
<path opacity="0.5" d="M169.865 85.2313C169.865 85.2313 174.102 113.75 176.423 124.434C178.963 136.118 188.564 175.112 188.564 175.112H195.402C195.402 175.112 189.072 137.078 187.62 125.475C186.045 112.902 182.748 85.2109 182.748 85.2109L169.865 85.2313Z" fill="black"/>
<path opacity="0.4" d="M172.542 95.3911C177.439 96.3512 176.921 114.614 176.332 124.007C174.92 117.367 172.852 104.591 171.44 95.5232C171.781 95.3548 172.17 95.3082 172.542 95.3911Z" fill="black"/>
<path d="M162.784 85.2312C162.784 85.2312 162.276 113.131 162.677 124.515C163.098 136.351 167.249 175.112 167.249 175.112H173.568C173.568 175.112 173.802 137.042 174.076 125.419C174.381 112.744 175.91 85.2312 175.91 85.2312H162.784Z" fill="#FF725E"/>
<path opacity="0.5" d="M162.784 85.2312C162.784 85.2312 162.276 113.131 162.677 124.515C163.098 136.351 167.249 175.112 167.249 175.112H173.568C173.568 175.112 173.802 137.042 174.076 125.419C174.381 112.744 175.91 85.2312 175.91 85.2312H162.784Z" fill="black"/>
<path d="M184.704 81.6448L181.976 82.1121L184.399 86.2168C184.399 86.2168 186.299 85.3024 186.644 83.5295L184.704 81.6448Z" fill="#9F5B53"/>
<path d="M166.675 38.9117C166.675 39.2114 166.517 39.4553 166.319 39.4553C166.121 39.4553 165.964 39.2114 165.964 38.9117C165.964 38.612 166.121 38.3682 166.319 38.3682C166.517 38.3682 166.675 38.6069 166.675 38.9117Z" fill="#263238"/>
<path d="M166.543 39.4553C166.183 40.3754 165.699 41.2419 165.105 42.0309C165.311 42.1779 165.546 42.2782 165.794 42.3247C166.042 42.3712 166.298 42.3628 166.543 42.3001V39.4553Z" fill="#892B29"/>
<path d="M167.742 37.2454C167.705 37.2459 167.669 37.2333 167.64 37.2099C167.463 37.0741 167.257 36.9825 167.038 36.9427C166.819 36.903 166.593 36.9162 166.38 36.9813C166.359 36.9894 166.336 36.9932 166.313 36.9925C166.29 36.9918 166.268 36.9865 166.247 36.9771C166.226 36.9676 166.208 36.9542 166.192 36.9374C166.177 36.9207 166.165 36.9011 166.157 36.8797C166.148 36.8584 166.143 36.8354 166.143 36.8123C166.143 36.7892 166.147 36.7662 166.156 36.7449C166.165 36.7236 166.179 36.7043 166.195 36.6882C166.212 36.672 166.232 36.6594 166.253 36.6511C166.521 36.5648 166.805 36.5447 167.082 36.5924C167.359 36.6402 167.62 36.7545 167.843 36.9254C167.863 36.938 167.879 36.9546 167.892 36.9741C167.905 36.9935 167.913 37.0154 167.917 37.0384C167.921 37.0613 167.92 37.0848 167.914 37.1073C167.909 37.1298 167.898 37.1509 167.884 37.1692C167.869 37.1932 167.848 37.2128 167.823 37.2262C167.798 37.2396 167.77 37.2462 167.742 37.2454Z" fill="#263238"/>
<path d="M176.393 42.3813C175.854 45.1144 175.321 50.1131 177.231 51.9368C177.231 51.9368 176.484 54.7054 171.409 54.7054C165.821 54.7054 168.747 51.9368 168.747 51.9368C171.795 51.2104 171.714 48.9498 171.181 46.8314L176.393 42.3813Z" fill="#9F5B53"/>
<path d="M177.963 52.8868C178.364 52.013 178.801 51.0072 177.891 50.6922C176.875 50.3468 171.404 49.9963 169.515 50.6414C169.265 50.7105 169.032 50.8284 168.829 50.9882C168.625 51.148 168.456 51.3466 168.329 51.5724C168.203 51.7982 168.123 52.0469 168.094 52.3039C168.064 52.5609 168.086 52.8212 168.158 53.0697L177.963 52.8868Z" fill="#FF725E"/>
<path d="M189.713 180.339C189.555 180.36 189.394 180.349 189.241 180.308C189.087 180.266 188.944 180.194 188.819 180.095C188.774 180.034 188.749 179.96 188.749 179.885C188.749 179.809 188.774 179.735 188.819 179.674C188.846 179.621 188.885 179.575 188.933 179.539C188.98 179.503 189.035 179.478 189.093 179.465C189.641 179.343 190.668 180.045 190.713 180.075C190.727 180.085 190.738 180.099 190.744 180.116C190.751 180.132 190.752 180.149 190.749 180.166C190.746 180.183 190.738 180.198 190.726 180.21C190.714 180.222 190.699 180.23 190.683 180.232C190.364 180.301 190.039 180.337 189.713 180.339ZM189.25 179.628H189.139C189.104 179.635 189.072 179.65 189.044 179.671C189.016 179.692 188.992 179.719 188.976 179.75C188.895 179.892 188.946 179.953 188.976 179.973C189.133 180.187 189.895 180.187 190.454 180.095C190.092 179.855 189.681 179.699 189.25 179.638V179.628Z" fill="#FF725E"/>
<path d="M190.668 180.248H190.627C190.241 180.034 189.494 179.232 189.57 178.805C189.583 178.739 189.619 178.68 189.671 178.637C189.723 178.594 189.788 178.571 189.855 178.571C189.922 178.564 189.989 178.57 190.054 178.589C190.119 178.609 190.179 178.64 190.231 178.683C190.663 179.039 190.739 180.116 190.739 180.161C190.741 180.177 190.738 180.194 190.731 180.208C190.724 180.223 190.712 180.235 190.698 180.243C190.688 180.247 190.678 180.248 190.668 180.248ZM189.916 178.724H189.875C189.758 178.724 189.748 178.795 189.743 178.815C189.697 179.064 190.175 179.679 190.556 179.968C190.529 179.544 190.377 179.137 190.119 178.8C190.061 178.756 189.989 178.732 189.916 178.734V178.724Z" fill="#FF725E"/>
<path d="M167.305 180.339C166.827 180.339 166.365 180.273 166.207 180.06C166.168 180.003 166.147 179.936 166.147 179.867C166.147 179.798 166.168 179.73 166.207 179.674C166.237 179.621 166.277 179.576 166.325 179.54C166.373 179.504 166.428 179.478 166.487 179.465C167.102 179.298 168.412 180.039 168.468 180.07C168.483 180.079 168.495 180.093 168.502 180.11C168.509 180.126 168.512 180.144 168.509 180.161C168.507 180.179 168.498 180.196 168.485 180.209C168.473 180.222 168.456 180.23 168.438 180.232C168.064 180.303 167.685 180.339 167.305 180.339ZM166.71 179.618C166.655 179.61 166.598 179.61 166.543 179.618C166.507 179.625 166.473 179.639 166.443 179.66C166.414 179.681 166.389 179.708 166.37 179.74C166.309 179.851 166.329 179.902 166.37 179.933C166.543 180.166 167.483 180.182 168.184 180.085C167.727 179.838 167.226 179.683 166.71 179.628V179.618Z" fill="#FF725E"/>
<path d="M168.432 180.247H168.397C167.945 180.049 167.056 179.231 167.122 178.82C167.122 178.718 167.208 178.596 167.452 178.571C167.543 178.557 167.635 178.564 167.723 178.59C167.811 178.616 167.892 178.662 167.96 178.723C168.438 179.109 168.534 180.115 168.539 180.161C168.541 180.177 168.539 180.192 168.533 180.207C168.526 180.221 168.516 180.233 168.504 180.242C168.493 180.248 168.481 180.252 168.469 180.253C168.456 180.253 168.444 180.252 168.432 180.247ZM167.523 178.723H167.467C167.31 178.723 167.3 178.805 167.295 178.825C167.254 179.079 167.864 179.714 168.311 179.988C168.267 179.562 168.089 179.16 167.803 178.84C167.725 178.773 167.626 178.736 167.523 178.734V178.723Z" fill="#FF725E"/>
<path d="M190.947 179.724H195.138C195.213 179.725 195.285 179.751 195.343 179.798C195.401 179.845 195.442 179.91 195.458 179.983L196.195 183.3C196.211 183.381 196.21 183.465 196.19 183.545C196.17 183.625 196.132 183.699 196.079 183.763C196.027 183.826 195.96 183.877 195.885 183.911C195.81 183.946 195.728 183.963 195.646 183.961C194.183 183.935 193.472 183.849 191.628 183.849C190.495 183.849 188.158 183.971 186.588 183.971C185.019 183.971 184.82 182.447 185.461 182.279C188.336 181.649 189.418 180.781 190.342 179.958C190.507 179.806 190.723 179.723 190.947 179.724Z" fill="#263238"/>
<path d="M168.829 179.724H172.893C172.968 179.725 173.04 179.751 173.098 179.798C173.156 179.845 173.197 179.91 173.213 179.983L173.949 183.3C173.967 183.38 173.966 183.463 173.947 183.543C173.928 183.623 173.892 183.697 173.84 183.761C173.788 183.824 173.723 183.875 173.648 183.91C173.574 183.945 173.493 183.962 173.411 183.961C171.943 183.935 169.819 183.849 167.97 183.849C165.811 183.849 163.942 183.971 161.407 183.971C159.883 183.971 159.451 182.447 160.091 182.279C163.012 181.639 165.395 181.573 167.919 180.019C168.188 179.836 168.504 179.734 168.829 179.724Z" fill="#263238"/>
<path d="M163.5 60.4153C162.022 62.5997 160.492 64.6368 158.841 66.6587C157.192 68.7012 155.428 70.6483 153.558 72.4905L152.827 73.1814L152.639 73.3541L152.512 73.4709L152.324 73.6335C152.082 73.8236 151.826 73.9935 151.557 74.1415C150.699 74.5926 149.755 74.8558 148.788 74.9137C147.312 75.0056 145.83 74.8841 144.389 74.553C141.777 73.9745 139.244 73.0842 136.845 71.9012L137.775 69.2596C140.155 69.7332 142.563 70.0606 144.983 70.2401C146.046 70.3266 147.116 70.2823 148.168 70.108C148.47 70.0643 148.759 69.9532 149.012 69.7829V69.7473L149.047 69.7067L149.2 69.539L149.799 68.8786C151.389 67.0651 152.928 65.1397 154.422 63.1636C155.915 61.1875 157.409 59.1758 158.836 57.1997L163.5 60.4153Z" fill="#9F5B53"/>
<path d="M165.222 60.9995C164.703 64.1511 163.34 67.1035 161.28 69.5441C161.199 67.7559 161.168 66.1506 161.173 64.713L165.222 60.9995Z" fill="#BED3FC"/>
<path d="M176.713 38.2717C176.489 41.97 176.545 44.1442 174.681 46.0441C171.872 48.8991 167.31 47.2024 166.426 43.5041C165.633 40.1818 166.136 34.6954 169.758 33.2222C170.555 32.8949 171.422 32.7767 172.277 32.879C173.133 32.9813 173.947 33.3007 174.644 33.8067C175.341 34.3128 175.897 34.9887 176.259 35.7702C176.621 36.5517 176.777 37.4129 176.713 38.2717Z" fill="#9F5B53"/>
<path d="M169.53 35.813C169.56 40.1614 170.972 45.4954 175.179 45.1246C177.973 44.8808 180.096 39.7855 180.386 37.6265C180.828 34.3245 180.894 33.6946 179.034 33.3136C179.847 32.8716 180.142 30.7736 178.242 30.2656C175.6 29.5696 170.622 28.8889 172.187 27.2786C169.067 27.8424 168.285 29.0921 168.854 30.611C167.03 30.4688 165.908 29.5138 165.964 28.071C162.941 29.2953 160.98 36.2194 169.53 35.813Z" fill="#263238"/>
<path d="M171.704 39.3487C171.498 40.2455 171.001 41.0491 170.292 41.6347C169.352 42.3967 168.6 41.716 168.62 40.6187C168.62 39.6281 169.159 38.0381 170.216 37.7028C171.272 37.3675 171.963 38.2667 171.704 39.3487Z" fill="#9F5B53"/>
<path d="M181.864 34.0705C181.367 33.7539 180.799 33.5658 180.211 33.5233C179.623 33.4807 179.034 33.5849 178.496 33.8266C178.496 33.8266 180.609 30.9869 181.864 34.0705Z" fill="#263238"/>
<path d="M187.452 172.592C187.421 172.592 188.158 175.218 188.158 175.218H195.849L195.707 172.877L187.452 172.592Z" fill="#FF725E"/>
<path d="M166.019 172.592C165.989 172.592 166.375 175.218 166.375 175.218H174.066L174.274 172.877L166.019 172.592Z" fill="#FF725E"/>
<path d="M168.549 170.57C168.534 170.57 168.519 170.565 168.508 170.554C168.497 170.544 168.49 170.53 168.488 170.514C167.371 159.785 164.744 133.827 164.424 124.515C164.084 115.01 164.394 93.6845 164.496 87.3752C164.496 87.3396 164.526 87.3193 164.562 87.3142C164.577 87.3154 164.592 87.3222 164.603 87.3334C164.615 87.3446 164.621 87.3594 164.623 87.3752C164.521 93.6845 164.211 115.01 164.551 124.51C164.882 133.822 167.508 159.77 168.615 170.499C168.616 170.516 168.609 170.533 168.598 170.546C168.587 170.559 168.571 170.568 168.554 170.57H168.549Z" fill="#FF725E"/>
<path opacity="0.3" d="M168.549 170.57C168.534 170.57 168.519 170.565 168.508 170.554C168.497 170.544 168.49 170.53 168.488 170.514C167.371 159.785 164.744 133.827 164.424 124.515C164.084 115.01 164.394 93.6845 164.496 87.3752C164.496 87.3396 164.526 87.3193 164.562 87.3142C164.577 87.3154 164.592 87.3222 164.603 87.3334C164.615 87.3446 164.621 87.3594 164.623 87.3752C164.521 93.6845 164.211 115.01 164.551 124.51C164.882 133.822 167.508 159.77 168.615 170.499C168.616 170.516 168.609 170.533 168.598 170.546C168.587 170.559 168.571 170.568 168.554 170.57H168.549Z" fill="black"/>
<path d="M166.944 55.996C167.452 59.552 160.472 68.5589 160.472 68.5589L153.477 63.743C153.477 63.743 155.417 58.7697 158.684 55.5083C162.413 51.8152 166.406 52.1505 166.944 55.996Z" fill="#FF725E"/>
<path opacity="0.8" d="M166.944 55.996C167.452 59.552 160.472 68.5589 160.472 68.5589L153.477 63.743C153.477 63.743 155.417 58.7697 158.684 55.5083C162.413 51.8152 166.406 52.1505 166.944 55.996Z" fill="white"/>
<path d="M163.007 52.9733C163.007 52.9733 159.034 57.4589 162.783 85.2313H182.748C182.885 82.1833 180.96 67.2176 183.911 52.7802C181.705 52.3554 179.474 52.0737 177.231 51.9369C174.405 51.7743 171.573 51.7743 168.747 51.9369C166.81 52.1322 164.891 52.4787 163.007 52.9733Z" fill="#FF725E"/>
<path opacity="0.8" d="M163.007 52.9733C163.007 52.9733 159.034 57.4589 162.783 85.2313H182.748C182.885 82.1833 180.96 67.2176 183.911 52.7802C181.705 52.3554 179.474 52.0737 177.231 51.9369C174.405 51.7743 171.573 51.7743 168.747 51.9369C166.81 52.1322 164.891 52.4787 163.007 52.9733Z" fill="white"/>
<path d="M104.272 32.5847C105.866 25.5614 101.465 18.5754 94.4416 16.9811C87.4183 15.3867 80.4323 19.7877 78.8379 26.811C77.2435 33.8343 81.6446 40.8203 88.6679 42.4147C95.6912 44.009 102.677 39.608 104.272 32.5847Z" fill="#FF725E"/>
<path opacity="0.2" d="M104.272 32.5847C105.866 25.5614 101.465 18.5754 94.4416 16.9811C87.4183 15.3867 80.4323 19.7877 78.8379 26.811C77.2435 33.8343 81.6446 40.8203 88.6679 42.4147C95.6912 44.009 102.677 39.608 104.272 32.5847Z" fill="white"/>
<path d="M90.2157 46.6079C86.8428 46.3474 83.6258 45.0798 80.9819 42.9693C78.3379 40.8588 76.3888 38.0029 75.3872 34.7715L75.8698 34.6191C76.8421 37.7536 78.7333 40.5238 81.2984 42.5709C83.8635 44.6179 86.9843 45.8473 90.2564 46.0999L90.2157 46.6079Z" fill="#FF725E"/>
<path opacity="0.2" d="M90.2157 46.6079C86.8428 46.3474 83.6258 45.0798 80.9819 42.9693C78.3379 40.8588 76.3888 38.0029 75.3872 34.7715L75.8698 34.6191C76.8421 37.7536 78.7333 40.5238 81.2984 42.5709C83.8635 44.6179 86.9843 45.8473 90.2564 46.0999L90.2157 46.6079Z" fill="white"/>
<path d="M75.7987 25.0029L75.2907 24.8607C75.9455 22.6726 77.0356 20.6394 78.4955 18.8831C79.9555 17.1267 81.7552 15.6834 83.7866 14.6396C85.8181 13.5959 88.0395 12.9733 90.3175 12.8092C92.5955 12.6451 94.8832 12.9429 97.0433 13.6847L96.8807 14.1673C94.7839 13.4484 92.5635 13.1605 90.3527 13.3209C88.1419 13.4812 85.9863 14.0864 84.0151 15.1002C82.0439 16.114 80.2979 17.5155 78.8816 19.2207C77.4654 20.9258 76.4081 22.8995 75.7733 25.0232L75.7987 25.0029Z" fill="#FF725E"/>
<path opacity="0.2" d="M75.7987 25.0029L75.2907 24.8607C75.9455 22.6726 77.0356 20.6394 78.4955 18.8831C79.9555 17.1267 81.7552 15.6834 83.7866 14.6396C85.8181 13.5959 88.0395 12.9733 90.3175 12.8092C92.5955 12.6451 94.8832 12.9429 97.0433 13.6847L96.8807 14.1673C94.7839 13.4484 92.5635 13.1605 90.3527 13.3209C88.1419 13.4812 85.9863 14.0864 84.0151 15.1002C82.0439 16.114 80.2979 17.5155 78.8816 19.2207C77.4654 20.9258 76.4081 22.8995 75.7733 25.0232L75.7987 25.0029Z" fill="white"/>
<path d="M107.259 24.7843C106.071 20.9862 103.544 17.7492 100.147 15.6759L100.411 15.239C103.91 17.3801 106.512 20.7175 107.737 24.6319L107.259 24.7843Z" fill="#FF725E"/>
<path opacity="0.2" d="M107.259 24.7843C106.071 20.9862 103.544 17.7492 100.147 15.6759L100.411 15.239C103.91 17.3801 106.512 20.7175 107.737 24.6319L107.259 24.7843Z" fill="white"/>
<path d="M104.277 68.5811C105.872 61.5578 101.471 54.5718 94.4474 52.9774C87.4241 51.3831 80.4381 55.7841 78.8438 62.8074C77.2494 69.8307 81.6504 76.8167 88.6737 78.411C95.697 80.0054 102.683 75.6044 104.277 68.5811Z" fill="#FF725E"/>
<path opacity="0.6" d="M104.277 68.5811C105.872 61.5578 101.471 54.5718 94.4474 52.9774C87.4241 51.3831 80.4381 55.7841 78.8438 62.8074C77.2494 69.8307 81.6504 76.8167 88.6737 78.411C95.697 80.0054 102.683 75.6044 104.277 68.5811Z" fill="white"/>
<path d="M104.273 104.576C105.868 97.5529 101.467 90.5669 94.4433 88.9725C87.42 87.3782 80.434 91.7792 78.8397 98.8025C77.2453 105.826 81.6463 112.812 88.6696 114.406C95.6929 116.001 102.679 111.599 104.273 104.576Z" fill="#FF725E"/>
<path opacity="0.6" d="M104.273 104.576C105.868 97.5529 101.467 90.5669 94.4433 88.9725C87.42 87.3782 80.434 91.7792 78.8397 98.8025C77.2453 105.826 81.6463 112.812 88.6696 114.406C95.6929 116.001 102.679 111.599 104.273 104.576Z" fill="white"/>
<path d="M104.274 140.578C105.868 133.554 101.467 126.568 94.4441 124.974C87.4208 123.38 80.4348 127.781 78.8405 134.804C77.2461 141.827 81.6471 148.813 88.6704 150.408C95.6937 152.002 102.68 147.601 104.274 140.578Z" fill="#FF725E"/>
<path opacity="0.6" d="M104.274 140.578C105.868 133.554 101.467 126.568 94.4441 124.974C87.4208 123.38 80.4348 127.781 78.8405 134.804C77.2461 141.827 81.6471 148.813 88.6704 150.408C95.6937 152.002 102.68 147.601 104.274 140.578Z" fill="white"/>
<path d="M68.2763 32.5803C69.8706 25.557 65.4696 18.571 58.4463 16.9767C51.423 15.3823 44.437 19.7833 42.8427 26.8066C41.2483 33.8299 45.6493 40.8159 52.6726 42.4103C59.6959 44.0047 66.6819 39.6036 68.2763 32.5803Z" fill="#FF725E"/>
<path opacity="0.6" d="M68.2763 32.5803C69.8706 25.557 65.4696 18.571 58.4463 16.9767C51.423 15.3823 44.437 19.7833 42.8427 26.8066C41.2483 33.8299 45.6493 40.8159 52.6726 42.4103C59.6959 44.0047 66.6819 39.6036 68.2763 32.5803Z" fill="white"/>
<path d="M68.2821 68.5818C69.8765 61.5585 65.4755 54.5725 58.4522 52.9781C51.4289 51.3838 44.4429 55.7848 42.8485 62.8081C41.2542 69.8314 45.6552 76.8174 52.6785 78.4118C59.7018 80.0061 66.6878 75.6051 68.2821 68.5818Z" fill="#FF725E"/>
<path opacity="0.6" d="M68.2821 68.5818C69.8765 61.5585 65.4755 54.5725 58.4522 52.9781C51.4289 51.3838 44.4429 55.7848 42.8485 62.8081C41.2542 69.8314 45.6552 76.8174 52.6785 78.4118C59.7018 80.0061 66.6878 75.6051 68.2821 68.5818Z" fill="white"/>
<path d="M68.278 104.577C69.8723 97.5539 65.4713 90.5679 58.448 88.9735C51.4247 87.3791 44.4387 91.7802 42.8444 98.8035C41.25 105.827 45.651 112.813 52.6743 114.407C59.6976 116.001 66.6836 111.6 68.278 104.577Z" fill="#FF725E"/>
<path opacity="0.6" d="M68.278 104.577C69.8723 97.5539 65.4713 90.5679 58.448 88.9735C51.4247 87.3791 44.4387 91.7802 42.8444 98.8035C41.25 105.827 45.651 112.813 52.6743 114.407C59.6976 116.001 66.6836 111.6 68.278 104.577Z" fill="white"/>
<path d="M68.2788 140.574C69.8731 133.55 65.4721 126.564 58.4488 124.97C51.4255 123.376 44.4395 127.777 42.8452 134.8C41.2508 141.823 45.6518 148.809 52.6751 150.404C59.6984 151.998 66.6844 147.597 68.2788 140.574Z" fill="#FF725E"/>
<path opacity="0.6" d="M68.2788 140.574C69.8731 133.55 65.4721 126.564 58.4488 124.97C51.4255 123.376 44.4395 127.777 42.8452 134.8C41.2508 141.823 45.6518 148.809 52.6751 150.404C59.6984 151.998 66.6844 147.597 68.2788 140.574Z" fill="white"/>
<path d="M138.278 69.5341L135.54 66.6995L132.619 70.4688C132.619 70.4688 134.844 72.6126 137.49 71.9928L138.278 69.5341Z" fill="#9F5B53"/>
<path d="M131.775 65.145L130.526 69.0973L132.619 70.4689L135.54 66.6995L131.775 65.145Z" fill="#9F5B53"/>
<path d="M94.4881 65.3583C94.7146 64.6856 95.0841 64.0698 95.5711 63.5533C96.0582 63.0369 96.6512 62.632 97.3096 62.3665C97.968 62.1011 98.676 61.9813 99.3851 62.0154C100.094 62.0496 100.787 62.2368 101.417 62.5643L98.3692 60.9794C97.2409 60.4092 96.3686 59.435 95.9262 58.2508C95.4837 57.0665 95.5035 55.7591 95.9816 54.5887C96.2522 53.9718 96.6464 53.4168 97.1399 52.9582C97.6334 52.4996 98.2156 52.147 98.8507 51.9223C99.4858 51.6976 100.16 51.6055 100.832 51.6517C101.504 51.6979 102.16 51.8815 102.758 52.191L99.7104 50.6111C98.5808 50.0409 97.7077 49.0658 97.2651 47.8804C96.8226 46.695 96.8432 45.3863 97.3228 44.2154C97.5927 43.593 97.9884 43.0331 98.485 42.5709C98.9817 42.1086 99.5685 41.7541 100.209 41.5294C100.849 41.3047 101.528 41.2148 102.205 41.2653C102.882 41.3157 103.54 41.5055 104.14 41.8227L89.6672 34.2535C88.6024 33.7213 87.7619 32.8272 87.2964 31.7315C86.831 30.6359 86.771 29.4102 87.1272 28.2743C87.355 27.6019 87.7254 26.9867 88.2131 26.4707C88.7007 25.9547 89.2941 25.5502 89.9526 25.2849C90.6112 25.0195 91.3192 24.8996 92.0284 24.9334C92.7375 24.9671 93.431 25.1537 94.0614 25.4803L124.541 41.4163L121.412 28.5741C121.104 27.2839 121.297 25.9248 121.951 24.7712C122.606 23.6176 123.675 22.7555 124.94 22.3589C126.206 21.9624 127.575 22.0609 128.771 22.6346C129.967 23.2083 130.901 24.2144 131.384 25.4499L141.382 51.4188C142.238 53.6384 143.872 55.471 145.979 56.575L147.721 57.4843C147.988 57.6235 148.225 57.8141 148.419 58.0452C148.612 58.2762 148.757 58.5431 148.847 58.8306C148.937 59.1181 148.969 59.4204 148.941 59.7203C148.914 60.0202 148.827 60.3117 148.687 60.5781L136.495 83.8699C136.212 84.4081 135.728 84.8125 135.148 84.9943C134.568 85.1762 133.94 85.1208 133.401 84.8401L129.124 82.6049C127.503 81.7735 125.688 81.3978 123.871 81.5178C119.478 81.7633 115.1 80.8154 111.201 78.7746L96.9773 71.3375C95.9217 70.7969 95.0922 69.8993 94.6363 68.8044C94.1805 67.7095 94.128 66.4883 94.4881 65.3583Z" fill="#FF725E"/>
<path d="M134.488 85.8509C133.996 85.8514 133.512 85.7329 133.076 85.5055L128.798 83.2703C127.3 82.5029 125.622 82.1521 123.942 82.2543C119.412 82.5084 114.897 81.5324 110.876 79.4298L96.6521 71.9927C95.4336 71.3692 94.4756 70.334 93.9483 69.071C93.4209 67.8079 93.3584 66.3988 93.7718 65.094C94.0328 64.3156 94.4602 63.6034 95.0243 63.0068C95.5883 62.4103 96.2756 61.9438 97.0382 61.6396C97.2448 61.5541 97.4569 61.4829 97.6732 61.4263C96.4856 60.7144 95.5932 59.5995 95.1587 58.2847C94.7242 56.97 94.7764 55.5429 95.3059 54.2635C95.613 53.5465 96.0668 52.9016 96.6381 52.3706C97.2095 51.8395 97.8856 51.4339 98.6232 51.1799C98.7603 51.1342 98.8975 51.0885 99.0346 51.0529C97.8462 50.3418 96.9532 49.2269 96.5186 47.9119C96.084 46.5969 96.1368 45.1694 96.6674 43.8901C96.975 43.174 97.4291 42.5302 98.0004 42C98.5717 41.4699 99.2476 41.0651 99.9846 40.8116C100.112 40.7659 100.244 40.7253 100.371 40.6897L89.3166 34.9087C88.0981 34.2853 87.1401 33.25 86.6127 31.987C86.0854 30.7239 86.0228 29.3148 86.4362 28.0101C86.6993 27.2337 87.127 26.5234 87.6901 25.9277C88.2531 25.332 88.9383 24.865 89.6985 24.5587C90.4588 24.2524 91.2763 24.1139 92.0951 24.1529C92.9139 24.1918 93.7145 24.4072 94.4423 24.7843L123.444 39.9633L120.706 28.7517C120.355 27.2741 120.577 25.7183 121.329 24.3986C122.081 23.0789 123.306 22.0937 124.756 21.6422C126.206 21.1906 127.773 21.3063 129.141 21.966C130.509 22.6256 131.576 23.7799 132.126 25.1957L142.123 51.1647C142.913 53.2121 144.421 54.9022 146.365 55.9196L148.102 56.8289C148.458 57.0142 148.774 57.2679 149.031 57.5754C149.289 57.883 149.483 58.2383 149.603 58.621C149.723 59.0037 149.766 59.4064 149.73 59.8058C149.694 60.2053 149.579 60.5937 149.393 60.9488L137.201 84.2456C136.938 84.735 136.546 85.1433 136.068 85.4262C135.59 85.7091 135.043 85.856 134.488 85.8509ZM124.516 80.7252C126.251 80.7158 127.962 81.1253 129.504 81.919L133.782 84.1542C133.96 84.2486 134.155 84.3068 134.355 84.3255C134.556 84.3441 134.758 84.3228 134.95 84.2628C135.142 84.2028 135.321 84.1053 135.475 83.9759C135.63 83.8466 135.757 83.6879 135.849 83.509L148.041 60.2122C148.135 60.0342 148.192 59.8395 148.21 59.6393C148.228 59.4391 148.206 59.2373 148.145 59.0456C148.085 58.8539 147.987 58.6761 147.858 58.5223C147.728 58.3685 147.57 58.2419 147.391 58.1497L145.654 57.2404C143.389 56.0526 141.633 54.0806 140.716 51.693L130.714 25.7241C130.312 24.6545 129.516 23.7794 128.489 23.2782C127.463 22.7771 126.283 22.6881 125.193 23.0294C124.103 23.3707 123.184 24.1165 122.627 25.1136C122.069 26.1107 121.914 27.2834 122.194 28.3911L125.334 41.2384C125.369 41.3801 125.362 41.5289 125.314 41.6668C125.266 41.8046 125.18 41.9258 125.065 42.0156C124.95 42.1073 124.811 42.1634 124.665 42.1769C124.518 42.1905 124.371 42.1609 124.242 42.0918L93.7616 26.1559C93.2304 25.8797 92.6457 25.7217 92.0477 25.6927C91.4497 25.6638 90.8524 25.7646 90.297 25.9882C89.7346 26.2073 89.2281 26.549 88.8142 26.9883C88.4003 27.4277 88.0895 27.9537 87.9044 28.5282C87.6009 29.4916 87.65 30.5316 88.0427 31.4622C88.4354 32.3928 89.1462 33.1534 90.0481 33.6082L104.526 41.1774C104.705 41.271 104.84 41.432 104.9 41.625C104.961 41.8179 104.942 42.0269 104.849 42.2061C104.802 42.2948 104.739 42.3736 104.662 42.4378C104.585 42.502 104.497 42.5505 104.401 42.5804C104.208 42.6409 103.999 42.6223 103.82 42.5287C103.315 42.2664 102.761 42.1108 102.193 42.0714C101.625 42.0321 101.055 42.1099 100.518 42.3001C99.979 42.4858 99.4847 42.7818 99.0666 43.1693C98.6485 43.5568 98.3158 44.0272 98.0898 44.5505C97.6854 45.5433 97.67 46.652 98.0466 47.6556C98.4232 48.6592 99.1641 49.4841 100.122 49.9658L103.17 51.5508C103.334 51.6522 103.453 51.8119 103.504 51.9979C103.555 52.1838 103.533 52.382 103.444 52.5527C103.354 52.7234 103.203 52.8538 103.021 52.9177C102.84 52.9815 102.64 52.9741 102.464 52.897C101.959 52.6357 101.406 52.4806 100.839 52.4413C100.272 52.402 99.7027 52.4792 99.1667 52.6684C98.6276 52.8552 98.1332 53.1522 97.7152 53.5405C97.2971 53.9288 96.9645 54.4 96.7385 54.9239C96.3356 55.9161 96.321 57.0235 96.6975 58.026C97.074 59.0285 97.8141 59.8525 98.7705 60.3341L101.818 61.919C101.998 62.0127 102.132 62.1737 102.193 62.3666C102.253 62.5595 102.235 62.7686 102.141 62.9477C102.047 63.1269 101.886 63.2616 101.694 63.3221C101.501 63.3826 101.292 63.364 101.112 63.2703C100.58 62.9963 99.9956 62.8399 99.3978 62.8118C98.8 62.7838 98.2031 62.8847 97.6478 63.1078C97.0874 63.3294 96.5829 63.6719 96.1702 64.111C95.7575 64.55 95.4468 65.0748 95.2602 65.6478C94.9557 66.6112 95.0042 67.6515 95.397 68.5824C95.7899 69.5132 96.5013 70.2738 97.404 70.7278L111.628 78.1649C115.397 80.1131 119.62 81.0132 123.856 80.7709C124.079 80.7709 124.297 80.7354 124.516 80.7354V80.7252Z" fill="#FF725E"/>
<path d="M105.222 65.3126C105.098 65.3136 104.976 65.2839 104.867 65.2262L101.092 63.24C101.003 63.1936 100.925 63.1302 100.86 63.0534C100.796 62.9766 100.748 62.888 100.718 62.7924C100.688 62.6969 100.677 62.5964 100.686 62.4967C100.695 62.397 100.723 62.3 100.77 62.2113C100.816 62.1225 100.879 62.0438 100.956 61.9796C101.033 61.9154 101.122 61.8669 101.217 61.8369C101.313 61.807 101.413 61.7961 101.513 61.805C101.613 61.8139 101.71 61.8423 101.798 61.8887L105.593 63.875C105.744 63.9538 105.864 64.0809 105.935 64.2361C106.005 64.3913 106.021 64.5656 105.981 64.7311C105.941 64.8967 105.846 65.0439 105.712 65.1493C105.578 65.2547 105.413 65.3122 105.242 65.3126H105.222Z" fill="#FF725E"/>
<path d="M106.584 54.9394C106.46 54.941 106.337 54.9113 106.228 54.853L102.433 52.8667C102.337 52.8248 102.251 52.7636 102.18 52.687C102.109 52.6103 102.054 52.5198 102.019 52.4211C101.985 52.3224 101.971 52.2176 101.978 52.1132C101.986 52.0089 102.015 51.9072 102.064 51.8145C102.112 51.7219 102.179 51.6402 102.261 51.5747C102.342 51.5091 102.437 51.461 102.537 51.4335C102.638 51.4059 102.744 51.3994 102.847 51.4143C102.951 51.4293 103.05 51.4655 103.139 51.5205L106.934 53.5017C107.085 53.5805 107.206 53.7077 107.276 53.8629C107.346 54.0181 107.362 54.1923 107.322 54.3579C107.282 54.5234 107.187 54.6706 107.053 54.7761C106.919 54.8815 106.754 54.939 106.584 54.9394Z" fill="#FF725E"/>
<path d="M107.94 44.5712C107.818 44.5697 107.698 44.5402 107.589 44.4848L103.795 42.4985C103.706 42.4521 103.627 42.3888 103.563 42.312C103.499 42.2352 103.45 42.1465 103.42 42.051C103.39 41.9554 103.38 41.855 103.388 41.7552C103.397 41.6555 103.426 41.5585 103.472 41.4698C103.518 41.3811 103.582 41.3024 103.659 41.2381C103.735 41.1739 103.824 41.1254 103.92 41.0955C104.015 41.0655 104.116 41.0547 104.215 41.0636C104.315 41.0724 104.412 41.1009 104.501 41.1472L108.296 43.1335C108.447 43.2125 108.568 43.3401 108.638 43.4958C108.708 43.6515 108.724 43.8263 108.683 43.9921C108.642 44.158 108.546 44.3052 108.412 44.4102C108.277 44.5152 108.111 44.5719 107.94 44.5712Z" fill="#FF725E"/>
<path opacity="0.3" d="M134.488 85.8509C133.996 85.8514 133.512 85.7329 133.076 85.5055L128.798 83.2703C127.3 82.5029 125.622 82.1521 123.942 82.2543C119.412 82.5084 114.897 81.5324 110.876 79.4298L96.6521 71.9927C95.4336 71.3692 94.4756 70.334 93.9483 69.071C93.4209 67.8079 93.3584 66.3988 93.7718 65.094C94.0328 64.3156 94.4602 63.6034 95.0243 63.0068C95.5883 62.4103 96.2756 61.9438 97.0382 61.6396C97.2448 61.5541 97.4569 61.4829 97.6732 61.4263C96.4856 60.7144 95.5932 59.5995 95.1587 58.2847C94.7242 56.97 94.7764 55.5429 95.3059 54.2635C95.613 53.5465 96.0668 52.9016 96.6381 52.3706C97.2095 51.8395 97.8856 51.4339 98.6232 51.1799C98.7603 51.1342 98.8975 51.0885 99.0346 51.0529C97.8462 50.3418 96.9532 49.2269 96.5186 47.9119C96.084 46.5969 96.1368 45.1694 96.6674 43.8901C96.975 43.174 97.4291 42.5302 98.0004 42C98.5717 41.4699 99.2476 41.0651 99.9846 40.8116C100.112 40.7659 100.244 40.7253 100.371 40.6897L89.3166 34.9087C88.0981 34.2853 87.1401 33.25 86.6127 31.987C86.0854 30.7239 86.0228 29.3148 86.4362 28.0101C86.6993 27.2337 87.127 26.5234 87.6901 25.9277C88.2531 25.332 88.9383 24.865 89.6985 24.5587C90.4588 24.2524 91.2763 24.1139 92.0951 24.1529C92.9139 24.1918 93.7145 24.4072 94.4423 24.7843L123.444 39.9633L120.706 28.7517C120.355 27.2741 120.577 25.7183 121.329 24.3986C122.081 23.0789 123.306 22.0937 124.756 21.6422C126.206 21.1906 127.773 21.3063 129.141 21.966C130.509 22.6256 131.576 23.7799 132.126 25.1957L142.123 51.1647C142.913 53.2121 144.421 54.9022 146.365 55.9196L148.102 56.8289C148.458 57.0142 148.774 57.2679 149.031 57.5754C149.289 57.883 149.483 58.2383 149.603 58.621C149.723 59.0037 149.766 59.4064 149.73 59.8058C149.694 60.2053 149.579 60.5937 149.393 60.9488L137.201 84.2456C136.938 84.735 136.546 85.1433 136.068 85.4262C135.59 85.7091 135.043 85.856 134.488 85.8509ZM124.516 80.7252C126.251 80.7158 127.962 81.1253 129.504 81.919L133.782 84.1542C133.96 84.2486 134.155 84.3068 134.355 84.3255C134.556 84.3441 134.758 84.3228 134.95 84.2628C135.142 84.2028 135.321 84.1053 135.475 83.9759C135.63 83.8466 135.757 83.6879 135.849 83.509L148.041 60.2122C148.135 60.0342 148.192 59.8395 148.21 59.6393C148.228 59.4391 148.206 59.2373 148.145 59.0456C148.085 58.8539 147.987 58.6761 147.858 58.5223C147.728 58.3685 147.57 58.2419 147.391 58.1497L145.654 57.2404C143.389 56.0526 141.633 54.0806 140.716 51.693L130.714 25.7241C130.312 24.6545 129.516 23.7794 128.489 23.2782C127.463 22.7771 126.283 22.6881 125.193 23.0294C124.103 23.3707 123.184 24.1165 122.627 25.1136C122.069 26.1107 121.914 27.2834 122.194 28.3911L125.334 41.2384C125.369 41.3801 125.362 41.5289 125.314 41.6668C125.266 41.8046 125.18 41.9258 125.065 42.0156C124.95 42.1073 124.811 42.1634 124.665 42.1769C124.518 42.1905 124.371 42.1609 124.242 42.0918L93.7616 26.1559C93.2304 25.8797 92.6457 25.7217 92.0477 25.6927C91.4497 25.6638 90.8524 25.7646 90.297 25.9882C89.7346 26.2073 89.2281 26.549 88.8142 26.9883C88.4003 27.4277 88.0895 27.9537 87.9044 28.5282C87.6009 29.4916 87.65 30.5316 88.0427 31.4622C88.4354 32.3928 89.1462 33.1534 90.0481 33.6082L104.526 41.1774C104.705 41.271 104.84 41.432 104.9 41.625C104.961 41.8179 104.942 42.0269 104.849 42.2061C104.802 42.2948 104.739 42.3736 104.662 42.4378C104.585 42.502 104.497 42.5505 104.401 42.5804C104.208 42.6409 103.999 42.6223 103.82 42.5287C103.315 42.2664 102.761 42.1108 102.193 42.0714C101.625 42.0321 101.055 42.1099 100.518 42.3001C99.979 42.4858 99.4847 42.7818 99.0666 43.1693C98.6485 43.5568 98.3158 44.0272 98.0898 44.5505C97.6854 45.5433 97.67 46.652 98.0466 47.6556C98.4232 48.6592 99.1641 49.4841 100.122 49.9658L103.17 51.5508C103.334 51.6522 103.453 51.8119 103.504 51.9979C103.555 52.1838 103.533 52.382 103.444 52.5527C103.354 52.7234 103.203 52.8538 103.021 52.9177C102.84 52.9815 102.64 52.9741 102.464 52.897C101.959 52.6357 101.406 52.4806 100.839 52.4413C100.272 52.402 99.7027 52.4792 99.1667 52.6684C98.6276 52.8552 98.1332 53.1522 97.7152 53.5405C97.2971 53.9288 96.9645 54.4 96.7385 54.9239C96.3356 55.9161 96.321 57.0235 96.6975 58.026C97.074 59.0285 97.8141 59.8525 98.7705 60.3341L101.818 61.919C101.998 62.0127 102.132 62.1737 102.193 62.3666C102.253 62.5595 102.235 62.7686 102.141 62.9477C102.047 63.1269 101.886 63.2616 101.694 63.3221C101.501 63.3826 101.292 63.364 101.112 63.2703C100.58 62.9963 99.9956 62.8399 99.3978 62.8118C98.8 62.7838 98.2031 62.8847 97.6478 63.1078C97.0874 63.3294 96.5829 63.6719 96.1702 64.111C95.7575 64.55 95.4468 65.0748 95.2602 65.6478C94.9557 66.6112 95.0042 67.6515 95.397 68.5824C95.7899 69.5132 96.5013 70.2738 97.404 70.7278L111.628 78.1649C115.397 80.1131 119.62 81.0132 123.856 80.7709C124.079 80.7709 124.297 80.7354 124.516 80.7354V80.7252Z" fill="black"/>
</svg>
