<svg width="243" height="181" viewBox="0 0 243 181" fill="none" xmlns="http://www.w3.org/2000/svg">
<path d="M242.435 158.46H0.43454V158.581H242.435V158.46Z" fill="#EBEBEB"/>
<path d="M56.2543 163.068H44.2173V163.189H56.2543V163.068Z" fill="#EBEBEB"/>
<path d="M87.4723 161.757H74.1623V161.878H87.4723V161.757Z" fill="#EBEBEB"/>
<path d="M51.632 167.565H23.5068V167.686H51.632V167.565Z" fill="#EBEBEB"/>
<path d="M218.186 166.751H207.732V166.872H218.186V166.751Z" fill="#EBEBEB"/>
<path d="M117.911 162.691H104.393V162.812H117.911V162.691Z" fill="#EBEBEB"/>
<path d="M179.945 164.709H145.959V164.83H179.945V164.709Z" fill="#EBEBEB"/>
<path d="M115.143 136.874H21.687C20.9549 136.873 20.2532 136.581 19.7359 136.063C19.2187 135.545 18.9282 134.843 18.9282 134.111V2.73846C18.9346 2.01054 19.2279 1.31453 19.7444 0.801601C20.261 0.288677 20.959 0.000270409 21.687 -0.000976562H115.143C115.876 -0.000976562 116.578 0.290192 117.097 0.808475C117.615 1.32676 117.906 2.0297 117.906 2.76266V134.111C117.906 134.844 117.615 135.547 117.097 136.065C116.578 136.583 115.876 136.874 115.143 136.874ZM21.687 0.0958238C20.987 0.0971059 20.316 0.376091 19.8215 0.871543C19.3269 1.367 19.0492 2.03843 19.0492 2.73846V134.111C19.0492 134.811 19.3269 135.482 19.8215 135.978C20.316 136.473 20.987 136.752 21.687 136.753H115.143C115.843 136.752 116.514 136.473 117.01 135.978C117.505 135.482 117.784 134.811 117.785 134.111V2.73846C117.784 2.03798 117.505 1.36656 117.01 0.871248C116.514 0.375934 115.843 0.0971032 115.143 0.0958238H21.687Z" fill="#EBEBEB"/>
<path d="M219.837 136.874H126.376C125.644 136.873 124.941 136.581 124.423 136.063C123.905 135.545 123.614 134.843 123.613 134.111V2.73846C123.62 2.0101 123.915 1.31409 124.432 0.801298C124.949 0.288508 125.648 0.00025681 126.376 -0.000976562H219.837C220.564 0.00154241 221.26 0.290512 221.776 0.8033C222.292 1.31609 222.584 2.01138 222.591 2.73846V134.111C222.591 134.842 222.301 135.543 221.785 136.061C221.268 136.579 220.568 136.872 219.837 136.874ZM126.376 0.0958238C125.676 0.0971032 125.004 0.375934 124.509 0.871248C124.014 1.36656 123.735 2.03798 123.734 2.73846V134.111C123.735 134.811 124.014 135.482 124.509 135.978C125.004 136.473 125.676 136.752 126.376 136.753H219.837C220.537 136.752 221.208 136.473 221.704 135.978C222.199 135.482 222.478 134.811 222.479 134.111V2.73846C222.478 2.03798 222.199 1.36656 221.704 0.871248C221.208 0.375934 220.537 0.0971032 219.837 0.0958238H126.376Z" fill="#EBEBEB"/>
<path d="M98.4736 107.553H24.9056V143.476H98.4736V107.553Z" fill="#F5F5F5"/>
<path d="M95.5695 140.572V110.457H27.8096V140.572H95.5695Z" fill="#EBEBEB"/>
<path d="M95.5695 140.572V110.457H61.2346V140.572H95.5695Z" fill="#E6E6E6"/>
<path d="M74.1671 140.572V110.457H61.2346V140.572H74.1671Z" fill="#E0E0E0"/>
<path d="M32.1511 130.573V120.462H31.2363V130.573H32.1511Z" fill="#E0E0E0"/>
<path d="M95.5648 112.824V110.457H27.8048V112.824H95.5648Z" fill="#E0E0E0"/>
<path d="M98.4688 143.481H113.095V107.558H98.4688V143.481Z" fill="#E6E6E6"/>
<path d="M97.0554 158.46H98.4735V143.476H96.0245L97.0554 158.46Z" fill="#F5F5F5"/>
<path d="M26.3189 158.46H24.9056V143.476H27.3498L26.3189 158.46Z" fill="#F5F5F5"/>
<path d="M111.682 158.46H113.1V143.476H110.651L111.682 158.46Z" fill="#E6E6E6"/>
<path d="M40.9502 158.46H39.5321V143.476H41.9763L40.9502 158.46Z" fill="#E6E6E6"/>
<path d="M129.856 158.46H127.063V145.262H133.588L129.856 158.46Z" fill="#F5F5F5"/>
<path d="M179.708 158.46H182.501V145.262H175.977L179.708 158.46Z" fill="#E0E0E0"/>
<path d="M216.357 158.46H219.149V145.262H212.625L216.357 158.46Z" fill="#E0E0E0"/>
<path d="M132.871 151.404H213.341C216.549 151.404 219.149 148.804 219.149 145.596V131.7C219.149 128.493 216.549 125.892 213.341 125.892L132.871 125.892C129.664 125.892 127.063 128.493 127.063 131.7V145.596C127.063 148.804 129.664 151.404 132.871 151.404Z" fill="#F5F5F5"/>
<path d="M166.509 158.46H163.717V145.262H170.241L166.509 158.46Z" fill="#F5F5F5"/>
<path d="M169.525 151.404H213.341C216.549 151.404 219.149 148.804 219.149 145.596V131.7C219.149 128.493 216.549 125.892 213.341 125.892H169.525C166.317 125.892 163.717 128.493 163.717 131.7V145.596C163.717 148.804 166.317 151.404 169.525 151.404Z" fill="#E0E0E0"/>
<path d="M138.22 125.839H207.993C208.918 125.836 209.804 125.468 210.458 124.814C211.112 124.16 211.48 123.274 211.483 122.349C211.48 121.425 211.112 120.538 210.458 119.885C209.804 119.231 208.918 118.862 207.993 118.86H138.22C137.295 118.863 136.41 119.232 135.756 119.886C135.103 120.54 134.734 121.425 134.73 122.349C134.733 123.274 135.101 124.16 135.755 124.814C136.409 125.468 137.295 125.836 138.22 125.839Z" fill="#FAFAFA"/>
<path d="M166.48 125.839H207.993C208.918 125.836 209.804 125.468 210.458 124.814C211.112 124.16 211.48 123.274 211.483 122.349C211.48 121.425 211.112 120.538 210.458 119.885C209.804 119.231 208.918 118.862 207.993 118.86H166.48C165.556 118.862 164.67 119.231 164.016 119.885C163.362 120.538 162.993 121.425 162.991 122.349C162.993 123.274 163.362 124.16 164.016 124.814C164.67 125.468 165.556 125.836 166.48 125.839Z" fill="#EBEBEB"/>
<path d="M36.2119 55.9736C33.3756 65.523 35.3649 91.7896 35.3649 91.7896H38.5786C40.1613 83.247 37.5332 61.8058 36.2119 55.9736Z" fill="#E6E6E6"/>
<path d="M35.0841 91.4217H37.4509C37.4509 91.4217 34.4404 68.514 31.3235 60.9829C30.4426 70.9872 35.0841 91.4217 35.0841 91.4217Z" fill="#F0F0F0"/>
<path d="M52.4645 59.7439C53.5874 68.2623 46.8162 91.6879 46.8162 91.6879H43.5831C43.5492 84.0697 50.0784 64.9469 52.4645 59.7439Z" fill="#E6E6E6"/>
<path d="M47.1648 91.3636H44.7835C44.7835 91.3636 51.9709 70.9291 56.4721 64.2161C55.5235 73.1362 47.1648 91.3636 47.1648 91.3636Z" fill="#F0F0F0"/>
<path d="M47.46 57.4304C49.5025 66.5732 43.2395 91.746 43.2395 91.746H39.3675C38.6706 83.5519 45.0061 63.0158 47.46 57.4304Z" fill="#E6E6E6"/>
<path d="M40.6065 91.4217H38.2301C38.2301 91.4217 38.7141 68.514 40.984 60.9829C42.9539 70.9872 40.6065 91.4217 40.6065 91.4217Z" fill="#F0F0F0"/>
<path d="M31.3235 89.9697C31.3235 99.6836 35.7279 107.553 41.1632 107.553C46.5985 107.553 51.0029 99.6836 51.0029 89.9697H31.3235Z" fill="#F0F0F0"/>
<path d="M203.231 14.1948H78.3973V91.3638H203.231V14.1948Z" fill="#F0F0F0"/>
<path d="M203.231 91.3635H203.986V14.1946H203.231V91.3635Z" fill="#E6E6E6"/>
<path d="M200.327 88.4596V17.0986L81.3012 17.0986V88.4596L200.327 88.4596Z" fill="#FAFAFA"/>
<path d="M124.28 76.1999C137.215 76.1999 147.701 65.7141 147.701 52.7792C147.701 39.8442 137.215 29.3584 124.28 29.3584C111.346 29.3584 100.86 39.8442 100.86 52.7792C100.86 65.7141 111.346 76.1999 124.28 76.1999Z" fill="#EBEBEB"/>
<path d="M157.352 76.4417C152.672 76.4417 148.097 75.0539 144.206 72.4538C140.315 69.8537 137.282 66.1581 135.491 61.8343C133.7 57.5105 133.231 52.7527 134.144 48.1626C135.057 43.5725 137.311 39.3562 140.62 36.0469C143.929 32.7376 148.146 30.4839 152.736 29.5709C157.326 28.6579 162.084 29.1265 166.408 30.9174C170.731 32.7084 174.427 35.7413 177.027 39.6327C179.627 43.524 181.015 48.0989 181.015 52.779C181.009 59.0528 178.513 65.0678 174.077 69.504C169.641 73.9402 163.626 76.4353 157.352 76.4417ZM157.352 29.6002C152.768 29.6002 148.286 30.9596 144.475 33.5065C140.663 36.0535 137.692 39.6735 135.938 43.9089C134.183 48.1442 133.724 52.8047 134.619 57.3009C135.513 61.7972 137.721 65.9272 140.962 69.1688C144.204 72.4104 148.334 74.618 152.83 75.5124C157.326 76.4067 161.987 75.9477 166.222 74.1934C170.458 72.439 174.078 69.4681 176.625 65.6564C179.172 61.8447 180.531 57.3633 180.531 52.779C180.525 46.6336 178.08 40.7417 173.735 36.3962C169.389 32.0507 163.498 29.6066 157.352 29.6002Z" fill="#E0E0E0"/>
<path d="M121.435 180.318C173.262 180.318 215.277 177.865 215.277 174.839C215.277 171.813 173.262 169.36 121.435 169.36C69.6066 169.36 27.5918 171.813 27.5918 174.839C27.5918 177.865 69.6066 180.318 121.435 180.318Z" fill="#F5F5F5"/>
<path d="M171.03 124.261H49.0621C47.5075 124.246 46.0179 123.636 44.9003 122.555C43.7828 121.474 43.1225 120.006 43.0556 118.453L39.9096 27.248C39.8802 26.4941 40.0037 25.7421 40.2727 25.0372C40.5416 24.3324 40.9505 23.6892 41.4746 23.1466C41.9987 22.6039 42.6273 22.1729 43.3224 21.8797C44.0175 21.5864 44.7647 21.4368 45.5192 21.44H167.487C169.041 21.4558 170.53 22.0668 171.648 23.1472C172.765 24.2276 173.426 25.6952 173.494 27.248L176.64 118.453C176.668 119.207 176.544 119.958 176.275 120.663C176.006 121.368 175.597 122.01 175.073 122.553C174.549 123.095 173.921 123.526 173.226 123.82C172.531 124.113 171.784 124.263 171.03 124.261Z" fill="white"/>
<path d="M38.8545 52.8467H39.3385L39.2417 50.0249H38.7577L38.8545 52.8467ZM38.6706 47.2855H39.1546L38.8448 38.3267H38.3608L38.6706 47.2855Z" fill="#FF725E"/>
<path d="M171.04 124.503H49.0717C47.45 124.496 45.8937 123.862 44.7277 122.735C43.5617 121.608 42.876 120.074 42.8136 118.453L39.6676 27.2481C39.6348 26.4624 39.7619 25.6783 40.0412 24.9432C40.3205 24.208 40.7462 23.5373 41.2925 22.9716C41.8387 22.4059 42.4941 21.957 43.219 21.6522C43.9439 21.3473 44.7231 21.1929 45.5095 21.1981H167.478C169.099 21.2057 170.656 21.8391 171.822 22.9664C172.988 24.0936 173.673 25.6275 173.736 27.2481L176.882 118.453C176.914 119.239 176.787 120.023 176.508 120.758C176.229 121.493 175.803 122.164 175.257 122.73C174.711 123.295 174.055 123.744 173.33 124.049C172.605 124.354 171.826 124.508 171.04 124.503ZM45.524 21.6821C44.8 21.6748 44.082 21.8152 43.4141 22.0949C42.7462 22.3745 42.1423 22.7874 41.6394 23.3084C41.1366 23.8294 40.7453 24.4475 40.4894 25.1249C40.2336 25.8023 40.1187 26.5248 40.1516 27.2481L43.2976 118.453C43.3597 119.942 43.9916 121.35 45.0627 122.386C46.1339 123.422 47.5622 124.007 49.0524 124.019H171.02C171.744 124.023 172.46 123.88 173.127 123.599C173.793 123.319 174.396 122.906 174.899 122.385C175.401 121.865 175.793 121.249 176.051 120.573C176.308 119.897 176.426 119.176 176.398 118.453L173.252 27.2481C173.19 25.7584 172.557 24.3496 171.485 23.3135C170.413 22.2774 168.983 21.6933 167.492 21.6821H45.524Z" fill="#FF725E"/>
<path d="M116.759 40.0791L99.9741 93.5272L112.239 95.923C112.698 96.0175 113.176 95.9554 113.596 95.7467C114.017 95.5379 114.355 95.1944 114.557 94.7711C116.915 89.8318 120.284 85.4424 124.445 81.887C128.712 78.2371 131.537 73.1846 132.412 67.6381C134.328 55.9107 127.528 44.5271 116.759 40.0791Z" fill="#FF725E"/>
<path d="M106.295 108.608C106.985 108.751 107.696 108.752 108.386 108.612C109.076 108.473 109.731 108.195 110.311 107.796C110.891 107.397 111.385 106.884 111.762 106.289C112.139 105.695 112.391 105.03 112.505 104.335C112.714 102.901 112.364 101.442 111.528 100.258C110.693 99.0748 109.434 98.2575 108.013 97.9749L99.1221 96.2422L95.8745 106.576L106.295 108.608Z" fill="#FF725E"/>
<g opacity="0.2">
<path opacity="0.2" d="M105.351 33.4917C77.9374 40.6646 77.5067 52.1354 86.7511 73.7896C88.3893 77.6103 89.8145 81.519 91.0199 85.4975C97.4523 106.832 106.106 64.5016 110.699 46.6275C110.815 46.1494 110.961 45.679 111.135 45.219C112.868 40.7081 116.551 36.023 111.314 33.8595C109.42 33.0903 107.326 32.9612 105.351 33.4917Z" fill="#FF725E"/>
<path opacity="0.2" d="M91.0007 101.697C88.0483 100.632 85.3669 99.1318 87.4384 96.4795C88.0031 95.7873 88.7031 95.2175 89.4954 94.8049C93.2416 92.7624 94.6403 94.0692 95.3325 98.159C95.4285 98.7195 95.374 99.2955 95.1747 99.8281C94.9753 100.361 94.6382 100.831 94.1978 101.191C93.7573 101.55 93.2293 101.787 92.6676 101.876C92.1059 101.965 91.5307 101.903 91.0007 101.697Z" fill="#FF725E"/>
<path opacity="0.2" d="M133.564 105.937C125.941 114.504 117.141 121.454 110.695 110.094C109.052 107.072 108.01 103.76 107.626 100.342C105.516 84.1374 111.919 81.3495 127.034 85.3667C136.182 87.7964 139.696 99.0446 133.564 105.937Z" fill="#FF725E"/>
<path opacity="0.2" d="M67.2944 35.3309C73.0104 37.1749 78.2424 39.8805 74.4527 45.1029C73.4209 46.4662 72.1214 47.6043 70.634 48.4473C63.6063 52.6145 60.8475 50.1945 59.2503 42.407C59.0258 41.3405 59.0887 40.2335 59.4325 39.1993C59.7763 38.1652 60.3887 37.2409 61.207 36.521C62.0252 35.8012 63.0201 35.3117 64.0897 35.1026C65.1593 34.8935 66.2652 34.9723 67.2944 35.3309Z" fill="#FF725E"/>
<path opacity="0.2" d="M155.194 95.5212C154.226 95.5212 153.354 94.8388 152.774 94.2434C152.032 93.4702 151.429 92.5745 150.993 91.596C150.233 89.8874 150.741 88.387 152.324 87.6756C153.824 87.0076 156.273 86.9931 157.609 88.1596C158.199 88.6678 158.814 89.6116 158.378 91.2136L158.311 91.4604C158.097 92.5097 157.695 93.5116 157.125 94.4177C156.935 94.7088 156.686 94.957 156.394 95.1462C156.102 95.3354 155.774 95.4615 155.431 95.5164L155.194 95.5212ZM154.71 87.6949C153.97 87.6886 153.237 87.8336 152.556 88.1208C151.22 88.721 150.809 89.9504 151.457 91.412C151.871 92.3366 152.441 93.1831 153.141 93.9143C153.684 94.4806 154.516 95.1292 155.382 95.0227C155.661 94.9751 155.927 94.87 156.162 94.7142C156.398 94.5584 156.599 94.3552 156.752 94.1176C157.286 93.2552 157.663 92.3047 157.865 91.3104L157.933 91.0636C158.228 89.9697 158.025 89.1276 157.328 88.508C156.573 87.9373 155.641 87.6495 154.695 87.6949H154.71Z" fill="#FF725E"/>
</g>
<path d="M99.4512 91.1992L92.9124 89.9263C92.386 89.8173 91.9065 89.5472 91.5405 89.1535C91.1745 88.7598 90.9402 88.2619 90.8699 87.7289C90.146 82.118 88.3378 76.7016 85.5459 71.7811C82.5254 66.3959 81.5786 60.0919 82.8839 54.057C85.7056 41.1826 97.7621 33.2741 110.927 35.665C112.715 35.9907 114.464 36.5033 116.144 37.1945L116.382 37.2913L116.304 37.5333L99.4512 91.1992ZM106.29 35.7763C100.932 35.7238 95.7224 37.5327 91.5498 40.8941C87.3773 44.2554 84.5008 48.9609 83.4115 54.2071C82.1354 60.1107 83.0633 66.2773 86.0202 71.5439C88.8504 76.5219 90.6865 82.0023 91.4265 87.6805C91.4812 88.0961 91.6638 88.4843 91.9492 88.7914C92.2345 89.0984 92.6084 89.309 93.0189 89.3939L99.0931 90.5748L115.733 37.5865C114.162 36.9598 112.533 36.4912 110.869 36.1877C109.358 35.9148 107.826 35.7772 106.29 35.7763Z" fill="#FF725E"/>
<path d="M117.074 35.0889L116.556 34.9098L119.029 27.0352L119.542 27.2142L117.074 35.0889Z" fill="#FF725E"/>
<path d="M119.121 36.3718L118.85 35.8975L120.544 34.9634L120.82 35.4377L119.121 36.3718Z" fill="#FF725E"/>
<path d="M93.1206 111.358L92.6028 111.179L94.2968 105.787L94.8146 105.966L93.1206 111.358Z" fill="#FF725E"/>
<path d="M95.3518 104.248L94.5339 104.088C93.0325 103.792 91.7049 102.925 90.8313 101.668C89.9439 100.436 89.5803 98.9033 89.8197 97.4042C89.9388 96.6748 90.2043 95.9772 90.6002 95.3532C90.9961 94.7292 91.5143 94.1919 92.1235 93.7736C92.7326 93.3552 93.4202 93.0646 94.1448 92.9191C94.8693 92.7736 95.6158 92.7764 96.3392 92.9272L98.7592 93.4112L95.3518 104.248ZM90.3521 97.5155C90.2436 98.1897 90.2689 98.8786 90.4267 99.543C90.5845 100.207 90.8716 100.834 91.2717 101.388C92.0645 102.521 93.2644 103.305 94.621 103.575L94.9743 103.643L98.0574 93.8274L96.2569 93.4741C95.6012 93.3373 94.9246 93.3348 94.268 93.4668C93.6113 93.5988 92.9883 93.8626 92.4364 94.2421C91.8845 94.6216 91.4153 95.1091 91.057 95.675C90.6988 96.241 90.459 96.8736 90.3521 97.5349V97.5155Z" fill="#FF725E"/>
<path d="M175.081 80.7446C174.975 82.9129 173.794 90.1826 174.437 91.6346C175.081 93.0866 176.911 97.1232 182.772 97.0119C188.633 96.9006 187.743 87.9804 187.743 87.9804L175.081 80.7446Z" fill="#263238"/>
<path opacity="0.2" d="M175.081 80.7446C174.975 82.9129 173.794 90.1826 174.437 91.6346C175.081 93.0866 176.911 97.1232 182.772 97.0119C188.633 96.9006 187.743 87.9804 187.743 87.9804L175.081 80.7446Z" fill="black"/>
<path d="M193.551 59.1924C193.744 60.3927 193.991 61.5204 194.233 62.6772C194.475 63.8339 194.775 64.9616 195.065 66.0942C195.356 67.2268 195.675 68.3642 196.033 69.4822C196.198 70.0436 196.372 70.6051 196.551 71.1665C196.73 71.7279 196.88 72.241 197.151 72.9428C197.64 74.1046 198.231 75.2206 198.918 76.2776C199.567 77.2988 200.249 78.2765 200.961 79.2203C201.672 80.1641 202.413 81.0837 203.153 81.9888C203.894 82.8938 204.673 83.7699 205.496 84.6314L207.107 83.3585C206.507 82.3905 205.883 81.4225 205.292 80.4545C204.702 79.4865 204.092 78.5185 203.526 77.5263C202.959 76.5341 202.403 75.5612 201.9 74.5787C201.402 73.6451 200.978 72.6742 200.631 71.6747C200.506 71.2827 200.37 70.6728 200.23 70.1307L199.828 68.4658L199.058 65.131C198.807 64.0178 198.574 62.8998 198.342 61.7866C198.11 60.6734 197.858 59.5457 197.655 58.4712L193.551 59.1924Z" fill="#FFC3BD"/>
<path d="M206.522 82.7631L209.953 84.9944L206.667 85.9624C206.667 85.9624 204.145 84.3797 204.615 82.7583L206.522 82.7631Z" fill="#FFC3BD"/>
<path d="M210.921 86.9546L208.477 88.0291L206.667 85.9285L209.953 84.9702L210.921 86.9546Z" fill="#FFC3BD"/>
<path d="M189.025 170.958C189.386 170.949 189.745 170.9 190.095 170.812C190.113 170.808 190.13 170.799 190.143 170.785C190.156 170.772 190.165 170.755 190.169 170.736C190.172 170.718 190.171 170.699 190.163 170.681C190.156 170.664 190.144 170.649 190.129 170.638C189.988 170.546 188.759 169.752 188.285 169.965C188.232 169.99 188.187 170.028 188.154 170.075C188.121 170.123 188.101 170.179 188.096 170.236C188.081 170.324 188.088 170.414 188.116 170.498C188.144 170.582 188.192 170.659 188.256 170.72C188.475 170.891 188.748 170.975 189.025 170.958ZM189.824 170.672C189.122 170.817 188.59 170.793 188.372 170.604C188.328 170.56 188.296 170.505 188.28 170.445C188.263 170.385 188.261 170.321 188.275 170.261C188.275 170.234 188.283 170.209 188.298 170.187C188.312 170.166 188.333 170.149 188.357 170.14C188.614 170.023 189.325 170.367 189.824 170.672Z" fill="#FF725E"/>
<path d="M190.075 170.812H190.124C190.138 170.803 190.15 170.79 190.159 170.774C190.167 170.759 190.172 170.742 190.172 170.725C190.172 170.677 190.172 169.51 189.727 169.118C189.672 169.069 189.608 169.032 189.537 169.011C189.467 168.989 189.393 168.983 189.32 168.992C189.244 168.992 189.17 169.018 189.11 169.067C189.051 169.116 189.011 169.183 188.996 169.258C188.904 169.718 189.64 170.589 190.027 170.812H190.075ZM189.383 169.171C189.423 169.17 189.462 169.177 189.498 169.191C189.535 169.205 189.568 169.226 189.596 169.254C189.852 169.63 189.984 170.077 189.974 170.531C189.587 170.222 189.127 169.563 189.185 169.287C189.185 169.244 189.219 169.186 189.34 169.171H189.383Z" fill="#FF725E"/>
<path d="M162.928 168.562C162.944 168.563 162.961 168.561 162.977 168.554C162.992 168.547 163.005 168.537 163.015 168.523C163.026 168.507 163.032 168.487 163.032 168.468C163.032 168.448 163.026 168.428 163.015 168.412C162.904 168.242 161.95 166.786 161.379 166.718H161.34C161.288 166.717 161.236 166.729 161.189 166.754C161.142 166.778 161.103 166.814 161.074 166.858C161.022 166.926 160.988 167.006 160.973 167.09C160.959 167.174 160.965 167.261 160.992 167.342C161.176 167.904 162.27 168.339 162.904 168.552L162.928 168.562ZM161.365 166.907C161.679 166.945 162.289 167.686 162.7 168.281C161.844 167.962 161.282 167.599 161.181 167.284C161.162 167.231 161.157 167.173 161.167 167.118C161.176 167.062 161.199 167.009 161.234 166.965C161.245 166.946 161.26 166.931 161.279 166.921C161.298 166.91 161.319 166.906 161.34 166.907H161.365Z" fill="#FF725E"/>
<path d="M162.928 168.561C162.944 168.559 162.96 168.554 162.973 168.544C162.987 168.535 162.998 168.523 163.005 168.508C163.005 168.465 163.489 167.468 163.252 166.848C163.22 166.757 163.17 166.674 163.104 166.604C163.038 166.534 162.958 166.479 162.87 166.442C162.628 166.33 162.492 166.412 162.425 166.5C162.134 166.858 162.531 168.092 162.841 168.523C162.851 168.536 162.865 168.546 162.88 168.552C162.895 168.559 162.911 168.562 162.928 168.561ZM162.705 166.582C162.742 166.589 162.778 166.601 162.812 166.616C162.878 166.642 162.937 166.683 162.986 166.735C163.034 166.786 163.071 166.848 163.092 166.916C163.176 167.37 163.115 167.839 162.918 168.257C162.642 167.773 162.434 166.834 162.594 166.621C162.604 166.606 162.628 166.572 162.705 166.582Z" fill="#FF725E"/>
<path d="M189.785 44.6865C189.301 47.1065 188.256 52.3386 189.935 53.9454C189.935 53.9454 189.277 56.3654 184.81 56.3654C179.892 56.3654 182.457 53.9454 182.457 53.9454C185.144 53.3066 185.071 51.3125 184.606 49.4442L189.785 44.6865Z" fill="#FFC3BD"/>
<path d="M183.542 39.2468C183.57 39.256 183.6 39.256 183.629 39.2468C183.652 39.2377 183.673 39.2241 183.691 39.2067C183.709 39.1894 183.724 39.1686 183.733 39.1456C183.743 39.1227 183.749 39.098 183.749 39.0729C183.749 39.0479 183.744 39.0231 183.735 38.9999C183.629 38.7134 183.455 38.4567 183.229 38.2519C183.002 38.0471 182.729 37.9002 182.433 37.8238C182.409 37.819 182.383 37.8191 182.359 37.8241C182.335 37.8291 182.311 37.8388 182.291 37.8527C182.27 37.8667 182.252 37.8845 182.239 37.9053C182.225 37.9261 182.215 37.9494 182.211 37.9739C182.206 37.9983 182.206 38.0235 182.211 38.0479C182.216 38.0724 182.225 38.0956 182.239 38.1162C182.253 38.1369 182.271 38.1547 182.292 38.1684C182.313 38.1822 182.336 38.1917 182.361 38.1965C182.595 38.2657 182.809 38.3896 182.986 38.5579C183.162 38.7262 183.296 38.9341 183.377 39.1645C183.395 39.1911 183.42 39.2126 183.449 39.227C183.477 39.2414 183.509 39.2482 183.542 39.2468Z" fill="#263238"/>
<path d="M181.905 41.2212C181.467 41.8913 180.938 42.4973 180.332 43.0217C180.471 43.173 180.642 43.2922 180.831 43.3708C181.021 43.4494 181.226 43.4855 181.431 43.4766L181.905 41.2212Z" fill="#ED847E"/>
<path d="M182.307 40.7276C182.24 41.0519 182.012 41.2745 181.823 41.2116C181.635 41.1487 181.499 40.8728 181.567 40.5533C181.635 40.2339 181.857 40.0064 182.051 40.0693C182.244 40.1322 182.37 40.4081 182.307 40.7276Z" fill="#263238"/>
<path d="M182.138 40.1079L181.412 39.7256C181.412 39.7256 181.683 40.408 182.138 40.1079Z" fill="#263238"/>
<path d="M166.998 170.609L163.194 169.21L166.176 160.305L169.98 161.703L166.998 170.609Z" fill="#FFC3BD"/>
<path d="M194.79 170.715H190.734L191.053 161.331H195.109L194.79 170.715Z" fill="#FFC3BD"/>
<path d="M190.414 170.246H194.969C195.048 170.245 195.124 170.274 195.184 170.325C195.244 170.377 195.282 170.449 195.293 170.527L195.811 174.128C195.821 174.219 195.812 174.311 195.784 174.398C195.756 174.486 195.71 174.566 195.649 174.634C195.587 174.702 195.512 174.757 195.428 174.794C195.345 174.831 195.254 174.85 195.162 174.849C193.575 174.825 192.81 174.728 190.806 174.728C189.572 174.728 187.772 174.859 186.073 174.859C184.374 174.859 184.277 173.174 184.989 173.024C188.164 172.337 188.667 171.398 189.737 170.498C189.926 170.336 190.166 170.247 190.414 170.246Z" fill="#263238"/>
<path d="M163.402 168.189L167.356 170.444C167.425 170.482 167.478 170.544 167.505 170.618C167.531 170.692 167.53 170.773 167.502 170.846L166.166 174.234C166.129 174.318 166.075 174.392 166.008 174.454C165.94 174.515 165.86 174.562 165.774 174.591C165.687 174.619 165.595 174.629 165.504 174.621C165.414 174.612 165.326 174.584 165.246 174.539C163.881 173.726 163.262 173.266 161.519 172.274C160.45 171.664 158.17 170.512 156.679 169.67C155.189 168.828 155.958 167.323 156.646 167.54C159.748 168.508 161.297 168.32 162.676 168.068C162.925 168.021 163.182 168.064 163.402 168.189Z" fill="#263238"/>
<path opacity="0.2" d="M166.176 160.305L164.578 165.077L168.445 166.297L169.985 161.703L166.176 160.305Z" fill="black"/>
<path opacity="0.2" d="M195.109 161.331H191.053L190.889 166.171H194.944L195.109 161.331Z" fill="black"/>
<path d="M173.373 58.96C172.593 60.7798 171.741 62.6529 170.885 64.463C170.444 65.3633 169.989 66.2587 169.52 67.1347C169.05 68.0108 168.552 68.8626 168.044 69.666C167.792 70.0774 167.521 70.4501 167.255 70.8276C167.173 70.9654 167.062 71.0841 166.931 71.1761C166.734 71.2657 166.513 71.2895 166.301 71.2439C165.931 71.1891 165.57 71.085 165.227 70.9341C163.512 70.1035 161.925 69.0328 160.513 67.7542L158.954 69.0949C159.266 69.5502 159.6 69.9896 159.956 70.4114C160.305 70.8325 160.663 71.2439 161.055 71.6359C161.853 72.4731 162.756 73.2035 163.741 73.8091C164.309 74.1528 164.921 74.4182 165.561 74.598C166.353 74.8115 167.188 74.8115 167.981 74.598C168.829 74.354 169.583 73.8557 170.139 73.1702C170.507 72.7298 170.875 72.2845 171.195 71.8344C172.458 70.0813 173.584 68.2334 174.563 66.3071C175.546 64.4177 176.431 62.4792 177.216 60.4991L173.373 58.96Z" fill="#FFC3BD"/>
<path d="M159.187 72.2843C159.036 72.3229 158.876 72.301 158.741 72.2232C158.606 72.1454 158.507 72.0179 158.465 71.868L154.889 59.3663L156.684 58.8823L159.622 71.5486C159.662 71.7039 159.638 71.8686 159.557 72.0066C159.475 72.1445 159.342 72.2444 159.187 72.2843Z" fill="#FF725E"/>
<path d="M160.401 58.2629L151.341 60.6055C150.596 58.6828 150.19 56.6457 150.141 54.5845L159.187 52.2419C159.244 54.3037 159.655 56.3402 160.401 58.2629Z" fill="#FF725E"/>
<path opacity="0.3" d="M160.401 58.2629L152.595 60.2812C151.848 58.3588 151.44 56.3217 151.389 54.2602L159.187 52.2419C159.244 54.3037 159.655 56.3402 160.401 58.2629Z" fill="white"/>
<path d="M159.347 57.4317L151.865 59.3683C151.43 59.4808 151.169 59.9245 151.281 60.3592L151.804 62.3787C151.916 62.8135 152.36 63.0747 152.795 62.9622L160.278 61.0256C160.712 60.913 160.974 60.4694 160.861 60.0346L160.338 58.0151C160.226 57.5804 159.782 57.3192 159.347 57.4317Z" fill="#FF725E"/>
<path d="M161.084 68.3206L159.884 65.4795L157.13 67.3526C157.13 67.3526 158.485 69.4386 160.101 69.6903L161.084 68.3206Z" fill="#FFC3BD"/>
<path d="M157.981 63.9644L155.513 65.4406L157.13 67.3524L159.884 65.4744L157.981 63.9644Z" fill="#FFC3BD"/>
<path d="M193.294 41.8892C192.229 45.7612 191.842 47.4359 189.451 49.0331C185.831 51.4531 181.296 49.2848 181.184 45.1611C181.078 41.4536 182.84 35.7279 187.017 34.9971C187.934 34.8263 188.881 34.8927 189.766 35.1899C190.651 35.4872 191.445 36.0055 192.074 36.6957C192.702 37.3859 193.145 38.2252 193.358 39.1341C193.572 40.043 193.55 40.9913 193.294 41.8892Z" fill="#FFC3BD"/>
<path d="M192.045 32.427C191.431 33.395 191.416 34.6098 191.905 35.8973C190.569 34.7744 188.343 30.52 187.675 29.281C187.306 30.6106 187.232 32.0047 187.457 33.366C186.344 33.1482 184.814 32.1995 182.83 29.4504C182.632 31.2799 183.149 33.3514 184.016 35.2584C183.393 35.2463 182.778 35.1132 182.206 34.8664C181.968 35.7618 184.108 37.3348 184.108 37.3348C184.108 37.3348 182.825 39.053 184.108 42.4458C185.076 44.4738 185.39 48.7378 187.801 49.2218C188.769 49.4202 189.911 48.7378 190.932 47.8618C190.906 48.1391 190.831 48.4096 190.709 48.6604C191.305 48.2151 191.939 47.3294 191.973 46.8454C191.971 47.2453 191.899 47.6419 191.76 48.0166C192.444 47.3526 192.969 46.5416 193.294 45.645C193.411 46.0488 193.462 46.4689 193.444 46.8889C194.149 46.0346 194.602 45.0003 194.751 43.9026C195.074 44.4249 195.281 45.0111 195.356 45.6208C196.377 43.9268 196.701 42.0925 196.058 40.7808C196.233 40.5557 196.364 40.2996 196.445 40.0258C197.113 37.7026 193.788 37.0153 192.045 32.427Z" fill="#263238"/>
<path d="M183.614 41.047C183.243 41.7134 183.075 42.4738 183.13 43.2346C183.203 44.2317 183.953 44.2559 184.534 43.5783C185.114 42.9007 185.647 41.7197 185.289 40.9066C184.931 40.0935 184.079 40.258 183.614 41.047Z" fill="#FFC3BD"/>
<path d="M181.891 79.4524C181.891 79.4524 184.243 107.278 186.687 122.959C188.657 135.625 190.211 165.232 190.211 165.232H195.743C195.743 165.232 197.868 138.152 196.866 125.626C194.335 93.924 199.823 89.6987 194.01 79.4524H181.891Z" fill="#FF725E"/>
<path opacity="0.6" d="M181.891 79.4524C181.891 79.4524 184.243 107.278 186.687 122.959C188.657 135.625 190.211 165.232 190.211 165.232H195.743C195.743 165.232 197.868 138.152 196.866 125.626C194.335 93.924 199.823 89.6987 194.01 79.4524H181.891Z" fill="white"/>
<path opacity="0.4" d="M187.457 88.8516C186.005 90.9424 184.069 93.3431 183.435 95.9131C183.919 100.608 184.456 105.801 185.056 110.796C186.595 106.634 189.248 98.3138 187.457 88.8516Z" fill="#FF725E"/>
<path d="M177.545 79.4524C177.545 79.4524 173.223 110.612 171.393 122.838C169.457 135.558 164.181 163.794 164.181 163.794L169.457 165.295C169.457 165.295 179.215 138.007 181.17 125.52C183.299 111.909 192.123 79.4524 192.123 79.4524H177.545Z" fill="#FF725E"/>
<path opacity="0.6" d="M177.545 79.4524C177.545 79.4524 173.223 110.612 171.393 122.838C169.457 135.558 164.181 163.794 164.181 163.794L169.457 165.295C169.457 165.295 179.215 138.007 181.17 125.52C183.299 111.909 192.123 79.4524 192.123 79.4524H177.545Z" fill="white"/>
<path d="M163.388 163.717L170.125 165.754L171.233 163.252L164.022 161.069L163.388 163.717Z" fill="#263238"/>
<path d="M189.456 165.343H196.498L196.866 162.875L189.417 162.623L189.456 165.343Z" fill="#263238"/>
<path d="M194.257 78.4843L194.998 79.9605C195.056 80.0767 194.92 80.1929 194.731 80.1929H177.462C177.312 80.1929 177.191 80.1202 177.182 80.0234L177.032 78.5714C177.032 78.4698 177.153 78.3827 177.312 78.3827H193.986C194.036 78.3758 194.087 78.3816 194.134 78.3993C194.182 78.417 194.224 78.4463 194.257 78.4843Z" fill="#FF725E"/>
<path d="M192.016 80.3429H192.462C192.553 80.3429 192.621 80.2945 192.612 80.2412L192.403 78.3052C192.403 78.2472 192.321 78.2036 192.229 78.2036H191.784C191.697 78.2036 191.629 78.2472 191.634 78.3052L191.842 80.2412C191.852 80.3042 191.929 80.3429 192.016 80.3429Z" fill="#FF725E"/>
<path opacity="0.6" d="M192.016 80.3429H192.462C192.553 80.3429 192.621 80.2945 192.612 80.2412L192.403 78.3052C192.403 78.2472 192.321 78.2036 192.229 78.2036H191.784C191.697 78.2036 191.629 78.2472 191.634 78.3052L191.842 80.2412C191.852 80.3042 191.929 80.3429 192.016 80.3429Z" fill="white"/>
<path d="M181.194 80.3429H181.639C181.726 80.3429 181.794 80.2945 181.789 80.2412L181.581 78.3052C181.581 78.2472 181.494 78.2036 181.407 78.2036H180.967C180.875 78.2036 180.807 78.2472 180.817 78.3052L181.025 80.2412C181.025 80.3042 181.102 80.3429 181.194 80.3429Z" fill="#FF725E"/>
<path opacity="0.6" d="M181.194 80.3429H181.639C181.726 80.3429 181.794 80.2945 181.789 80.2412L181.581 78.3052C181.581 78.2472 181.494 78.2036 181.407 78.2036H180.967C180.875 78.2036 180.807 78.2472 180.817 78.3052L181.025 80.2412C181.025 80.3042 181.102 80.3429 181.194 80.3429Z" fill="white"/>
<path d="M195.003 53.868C200.046 56.0847 198.671 65.3098 200.457 67.3522C203.453 70.7935 201.701 84.3261 201.701 84.3261C198.366 81.3495 195.37 72.7392 192.955 67.5846C192.965 67.5846 192.161 52.6144 195.003 53.868Z" fill="#263238"/>
<path opacity="0.2" d="M197.979 65.0581L197.084 76.9548C197.874 78.7359 198.797 80.4556 199.843 82.0997C199.325 77.2985 198.976 69.3028 197.979 65.0581Z" fill="black"/>
<path d="M183.963 53.2004C179.123 53.5634 178.401 52.7841 176.349 53.5876C173.958 54.5314 175.125 69.7677 175.125 85.6138C175.125 92.8158 190.787 101.102 190.787 101.102C190.787 101.102 195.012 97.2298 195.012 92.6028C197.829 92.6028 198.744 89.8634 198.207 84.3264C197.723 79.3315 198.947 63.0304 198.124 59.7344C197.302 56.4383 195.932 52.9148 193.517 53.3988C191.102 53.8828 190.163 52.7551 183.963 53.2004Z" fill="#263238"/>
<path opacity="0.2" d="M180.352 53.3018C181.146 53.8777 185.961 55.5766 188.783 55.6782C191.605 55.7798 192.011 54.0471 192.011 54.0471L180.352 53.3018Z" fill="black"/>
<path d="M180.042 53.6409C179.074 53.365 180.555 52.5664 180.749 51.9227C180.942 51.279 180.526 49.8221 181.596 50.2287C182.665 50.6353 189.011 49.6624 191.189 50.7659C193.367 51.8695 193.662 53.1037 192.263 54.1249C190.864 55.1461 185.807 55.2962 180.042 53.6409Z" fill="#263238"/>
<path opacity="0.2" d="M177.825 65.4795C177.341 62.3093 176.01 64.6809 174.863 67.6913C174.907 70.9099 174.994 74.4964 175.057 78.2522C176.611 74.9804 178.547 70.0726 177.825 65.4795Z" fill="black"/>
<path d="M177.032 53.3889C173.881 53.839 171.248 62.7688 169.462 64.8161C166.466 68.2525 169.704 80.1928 169.704 80.1928C173.039 77.2162 175.739 72.7392 178.154 67.5846C178.154 67.5846 180.115 52.9436 177.032 53.3889Z" fill="#263238"/>
<path opacity="0.2" d="M194.335 65.2324C194.335 65.2324 194.925 87.6029 195.012 92.6026C195.715 92.6329 196.405 92.4019 196.948 91.9541L194.335 65.2324Z" fill="black"/>
</svg>
