<?xml version="1.0" encoding="utf-8"?>
<!-- Generator: Adobe Illustrator 24.1.3, SVG Export Plug-In . SVG Version: 6.00 Build 0)  -->
<svg version="1.1" id="Layer_1" xmlns="http://www.w3.org/2000/svg" xmlns:xlink="http://www.w3.org/1999/xlink" x="0px" y="0px"
	 viewBox="0 0 101 43" style="enable-background:new 0 0 101 43;" xml:space="preserve">
<style type="text/css">
	.st0{fill:#9B0030;}
	.st1{fill:#FEDE64;}
	.st2{fill:#FFF499;}
	.st3{fill:#F9AF00;}
	.st4{fill:#FEBF3D;}
	.st5{fill:#EE7434;}
	.st6{fill:#F28E00;}
	.st7{fill:#E95D17;}
	.st8{fill:#F90000;}
	.st9{fill:#E20021;}
	.st10{fill:#BF0020;}
	.st11{fill:#A30523;}
	.st12{fill:#8E0033;}
	.st13{fill:#66005F;}
	.st14{fill:#73007C;}
	.st15{fill:#8900AA;}
	.st16{fill:#9500AF;}
	.st17{fill:#B900D3;}
	.st18{fill:#0041A0;}
	.st19{fill:#007FBF;}
	.st20{fill:#0062BA;}
	.st21{fill:#0098CD;}
	.st22{fill:#92D0EE;}
	.st23{fill:#1D1D1C;}
</style>
<g id="img">
	<path class="st0" d="M23.8,31.8l8,7.9h-8V31.8z"/>
	<path class="st1" d="M0,7.9v7.9h7.9L0,7.9z"/>
	<path class="st2" d="M7.9,15.9V7.9H0L7.9,15.9z"/>
	<path class="st3" d="M0,15.9v7.9h7.9L0,15.9z"/>
	<path class="st4" d="M7.9,23.8v-7.9H0L7.9,23.8z"/>
	<path class="st5" d="M0,23.8v7.9h7.9L0,23.8z"/>
	<path class="st6" d="M7.9,31.7v-7.9H0L7.9,31.7z"/>
	<path class="st7" d="M7.9,39.7v-7.9H0L7.9,39.7z"/>
	<path class="st8" d="M7.9,31.7v7.9h7.9L7.9,31.7z"/>
	<path class="st9" d="M15.9,39.7v-7.9H7.9L15.9,39.7z"/>
	<path class="st10" d="M15.9,31.7v7.9h7.9L15.9,31.7z"/>
	<path class="st11" d="M23.8,39.7v-7.9h-7.9L23.8,39.7z"/>
	<path class="st12" d="M23.8,31.7v7.9h7.9L23.8,31.7z"/>
	<path class="st13" d="M31.7,39.7v-7.9h-7.9L31.7,39.7z"/>
	<path class="st14" d="M23.8,23.8v7.9h7.9L23.8,23.8z"/>
	<path class="st15" d="M31.7,31.7v-7.9h-7.9L31.7,31.7z"/>
	<path class="st16" d="M23.8,15.9v7.9h7.9L23.8,15.9z"/>
	<path class="st17" d="M31.7,23.8v-7.9h-7.9L31.7,23.8z"/>
	<path class="st18" d="M23.8,7.9v7.9h7.9L23.8,7.9z"/>
	<path class="st19" d="M15.9,7.9v7.9h7.9L15.9,7.9z"/>
	<path class="st20" d="M23.8,15.9V7.9h-7.9L23.8,15.9z"/>
	<path class="st21" d="M15.9,15.9V7.9H7.9L15.9,15.9z"/>
	<path class="st22" d="M7.9,0v7.9h7.9L7.9,0z"/>
</g>
<g id="type">
	<path class="st23" d="M41.1,23.9c0,0,1.5,0,4.3,0c0.8,0,1.7-0.2,2.3-0.8c0.3-0.3,0.5-0.6,0.7-1c0.1-0.4,0.2-0.8,0.2-1.2v-3.9
		c0-0.5-0.1-0.9-0.3-1.3c-0.2-0.4-0.5-0.8-0.8-1c-0.7-0.6-1.7-0.9-2.6-0.9c-0.9,0-1.8,0.2-2.7,0.6v-3.2h-1.1V23.9z M44.9,14.9
		c0.7,0,1.3,0.2,1.9,0.6c0.2,0.2,0.4,0.4,0.6,0.7c0.1,0.3,0.2,0.6,0.2,0.9v4c0,0.3,0,0.6-0.2,0.9c-0.1,0.3-0.3,0.5-0.6,0.6
		c-0.6,0.2-1.2,0.3-1.8,0.3c-0.9,0.1-1.8,0.1-2.7,0v-7.3C43.1,15.1,44,14.9,44.9,14.9z"/>
	<path class="st23" d="M56.2,17v1.6h-5.3V17c0-0.3,0-0.6,0.2-0.9c0.1-0.3,0.3-0.5,0.6-0.7c0.6-0.4,1.2-0.6,1.9-0.5
		c0.7,0,1.3,0.2,1.9,0.5c0.3,0.2,0.5,0.4,0.6,0.7C56.1,16.4,56.2,16.7,56.2,17z M57.2,19.6V17c0-0.5-0.1-0.9-0.3-1.3
		c-0.2-0.4-0.5-0.8-0.8-1c-0.8-0.6-1.7-0.9-2.6-0.8c-0.9,0-1.9,0.3-2.6,0.8c-0.4,0.3-0.7,0.6-0.8,1c-0.2,0.4-0.3,0.9-0.3,1.3v3.9
		c0,0.5,0.1,0.9,0.3,1.3c0.2,0.4,0.5,0.8,0.8,1c0.8,0.6,1.7,0.9,2.6,0.8c0.7,0,1.4-0.2,2.1-0.5c0.6-0.3,1.1-0.8,1.4-1.4l-1-0.5
		c-0.2,0.4-0.6,0.8-1,1c-0.5,0.2-1,0.3-1.5,0.3c-0.7,0-1.3-0.2-1.9-0.6c-0.3-0.2-0.5-0.4-0.6-0.7c-0.1-0.3-0.2-0.6-0.2-0.9v-1.4
		L57.2,19.6z"/>
	<path class="st23" d="M59.8,23.9v-8.2c0.9-0.4,1.8-0.6,2.7-0.6c0.7,0,1.3,0.2,1.8,0.6c0.2,0.2,0.5,0.4,0.6,0.7
		c0.1,0.3,0.2,0.6,0.2,0.9v6.7h1.1v-6.7c0-0.4-0.1-0.9-0.3-1.3c-0.2-0.4-0.5-0.8-0.8-1c-0.7-0.6-1.6-0.9-2.6-0.9
		c-1.3,0.1-2.6,0.3-3.8,0.8v9.1L59.8,23.9z"/>
	<path class="st23" d="M69.4,22.5c-0.2-0.2-0.4-0.5-0.5-0.8c-0.1-0.3-0.2-0.6-0.2-0.9v-5.7h2.1V14h-2.1v-2.7h-1.1v9.4
		c0,0.5,0,0.9,0.2,1.3c0.2,0.4,0.4,0.8,0.8,1.1c0.3,0.3,0.7,0.5,1.2,0.6c0.4,0.1,0.9,0.1,1.3,0.1V23c-0.3,0.1-0.6,0.1-0.9,0
		C69.9,22.9,69.6,22.7,69.4,22.5"/>
	<path class="st23" d="M81.4,15.4c0.3,0.2,0.5,0.4,0.6,0.7c0.1,0.3,0.2,0.6,0.2,0.9v3.9c0,0.3,0,0.6-0.2,0.9
		c-0.1,0.3-0.3,0.5-0.6,0.7c-0.6,0.4-1.2,0.6-1.9,0.6c-0.7,0-1.3-0.2-1.9-0.6c-0.3-0.2-0.5-0.4-0.6-0.7c-0.1-0.3-0.2-0.6-0.2-0.9V17
		c0-0.3,0-0.6,0.2-0.9c0.1-0.3,0.4-0.5,0.6-0.7c0.6-0.4,1.2-0.5,1.9-0.5C80.2,14.9,80.9,15.1,81.4,15.4L81.4,15.4z M75.8,20.9
		c0,0.5,0.1,0.9,0.3,1.3c0.2,0.4,0.5,0.8,0.9,1c0.8,0.6,1.7,0.9,2.6,0.9c0.9,0,1.9-0.3,2.6-0.9c0.4-0.3,0.6-0.6,0.8-1
		c0.2-0.4,0.3-0.9,0.3-1.3V17c0-0.5-0.1-0.9-0.3-1.3c-0.2-0.4-0.5-0.8-0.8-1c-0.8-0.6-1.7-0.9-2.6-0.9c-0.9,0-1.9,0.3-2.6,0.9
		c-0.4,0.3-0.7,0.6-0.9,1c-0.2,0.4-0.3,0.9-0.3,1.3V20.9z"/>
	<path class="st23" d="M90.6,18.1c-0.6-0.3-1.3-0.5-2-0.5c-0.7-0.1-1.4,0-2.1,0.2c-0.6,0.2-1.2,0.5-1.6,1.1c-0.5,0.6-0.7,1.3-0.7,2
		c0,0.4,0,0.9,0.2,1.3c0.2,0.4,0.4,0.7,0.8,1c0.5,0.5,1.3,0.8,2,0.8c1.5,0.1,3,0.1,4.5,0V17c0-0.4-0.1-0.7-0.2-1.1
		c-0.1-0.3-0.4-0.7-0.6-0.9c-0.5-0.5-1.2-0.9-1.9-1c-0.8-0.1-1.6-0.1-2.3,0.1c-0.7,0.2-1.4,0.6-1.9,1.1l0.7,0.7
		c0.5-0.6,1.1-0.9,1.9-1c0.8-0.1,1.6,0,2.3,0.3c0.3,0.2,0.6,0.4,0.8,0.7c0.2,0.3,0.3,0.6,0.2,1L90.6,18.1z M87.7,23
		c-0.6,0-1.2-0.2-1.7-0.6c-0.2-0.2-0.4-0.5-0.5-0.7c-0.1-0.3-0.2-0.6-0.2-0.9c0-0.3,0-0.6,0.1-0.8c0.1-0.3,0.3-0.5,0.4-0.7
		c0.4-0.4,0.9-0.6,1.5-0.6c0.6,0,1.2,0,1.7,0c0.5,0.1,1.1,0.2,1.6,0.4v3.8C89.7,23,88.7,23,87.7,23"/>
	<path class="st23" d="M94.1,11.3H93v12.5h1.1V11.3z M94.9,19l4.4-5h1.3l-4.4,5l4.4,4.9h-1.3L94.9,19z"/>
	<path class="st23" d="M41.2,37.5c0.4,0.6,1,1.2,1.6,1.5c0.7,0.4,1.4,0.5,2.2,0.5c0.8,0,1.6-0.2,2.3-0.7c0.3-0.2,0.5-0.5,0.7-0.9
		c0.1-0.3,0.2-0.7,0.2-1.1c0-1.5-1-2.5-3-2.8l-0.7-0.1c-0.1,0-0.3-0.1-0.6-0.2c-0.2-0.1-0.5-0.2-0.7-0.3c-0.2-0.1-0.3-0.3-0.4-0.5
		c-0.1-0.2-0.2-0.4-0.2-0.7c0-0.3,0-0.5,0.2-0.8c0.1-0.2,0.3-0.4,0.6-0.5c0.5-0.3,1.1-0.4,1.7-0.4c0.4,0,0.8,0,1.1,0.2
		c0.4,0.1,0.7,0.3,1,0.6l0.7-0.8c-0.8-0.7-1.7-1-2.8-1c-0.9,0-1.7,0.2-2.4,0.7c-0.3,0.2-0.6,0.5-0.8,0.9c-0.2,0.4-0.3,0.7-0.3,1.1
		c0,0.3,0.1,0.7,0.2,1c0.1,0.3,0.3,0.5,0.5,0.7c0.2,0.2,0.5,0.4,0.8,0.5c0.3,0.1,0.6,0.2,0.9,0.3c0.3,0.1,0.6,0.1,1,0.2
		c0.3,0,0.5,0.1,0.8,0.2c0.2,0.1,0.5,0.2,0.7,0.3c0.2,0.2,0.4,0.4,0.5,0.7c0.1,0.3,0.2,0.5,0.2,0.8c0,0.3,0,0.5-0.1,0.7
		c-0.1,0.2-0.3,0.4-0.5,0.6c-0.5,0.3-1,0.4-1.6,0.4c-0.6,0-1.2-0.1-1.7-0.4c-0.5-0.3-1-0.7-1.3-1.2L41.2,37.5z"/>
	<path class="st23" d="M58,37.5c0.4,0.6,1,1.2,1.6,1.5c0.7,0.4,1.4,0.5,2.2,0.5c0.8,0,1.6-0.2,2.3-0.7c0.3-0.2,0.6-0.5,0.7-0.9
		s0.2-0.7,0.2-1.1c0-1.5-1.1-2.5-3.1-2.8l-0.7-0.1c-0.1,0-0.3-0.1-0.6-0.2c-0.2-0.1-0.5-0.2-0.7-0.3c-0.2-0.1-0.3-0.3-0.4-0.5
		c-0.1-0.2-0.2-0.4-0.2-0.7c0-0.3,0-0.5,0.2-0.8c0.1-0.2,0.3-0.4,0.6-0.5c0.5-0.3,1.1-0.4,1.7-0.4c0.4,0,0.8,0,1.1,0.2
		c0.4,0.1,0.7,0.3,1,0.6l0.7-0.8c-0.8-0.7-1.7-1-2.8-1c-0.9,0-1.7,0.2-2.4,0.7c-0.3,0.2-0.6,0.5-0.8,0.9c-0.2,0.4-0.3,0.7-0.3,1.1
		c0,0.3,0.1,0.7,0.2,1c0.1,0.3,0.3,0.5,0.5,0.7c0.2,0.2,0.5,0.4,0.8,0.5c0.3,0.1,0.6,0.2,0.9,0.3c0.3,0.1,0.6,0.1,1,0.2
		c0.3,0,0.5,0.1,0.8,0.2c0.2,0.1,0.5,0.2,0.7,0.3c0.2,0.1,0.4,0.3,0.6,0.5c0.1,0.3,0.2,0.5,0.2,0.8c0,0.3,0,0.5-0.1,0.7
		c-0.1,0.2-0.3,0.4-0.5,0.6c-0.5,0.3-1,0.4-1.6,0.4c-0.6,0-1.2-0.1-1.7-0.4c-0.5-0.3-1-0.7-1.3-1.2L58,37.5z"/>
	<path class="st23" d="M68,38c-0.2-0.2-0.4-0.5-0.5-0.8c-0.1-0.3-0.2-0.6-0.2-0.9v-5.6h2.1v-1.1h-2.1l-0.1-3.3h-1.1l0.1,10
		c0,0.5,0,0.9,0.2,1.3c0.2,0.4,0.4,0.8,0.8,1.1c0.3,0.3,0.7,0.5,1.2,0.6c0.4,0.1,0.9,0.1,1.3,0.1v-0.9c-0.3,0.1-0.6,0.1-0.9,0
		C68.5,38.4,68.2,38.2,68,38z"/>
	<path class="st23" d="M76.8,32.6v1.6h-5.3v-1.7c0-0.3,0-0.6,0.2-0.9c0.1-0.3,0.3-0.5,0.6-0.7c0.6-0.4,1.2-0.5,1.9-0.5
		c0.7,0,1.3,0.2,1.9,0.5c0.3,0.2,0.5,0.4,0.6,0.7C76.8,31.9,76.9,32.2,76.8,32.6L76.8,32.6z M77.9,35.1v-2.5c0-0.5-0.1-0.9-0.3-1.3
		c-0.2-0.4-0.5-0.8-0.8-1c-0.8-0.5-1.7-0.8-2.6-0.8c-0.9,0-1.9,0.3-2.6,0.8c-0.4,0.3-0.7,0.6-0.8,1c-0.2,0.4-0.3,0.9-0.3,1.3v3.9
		c0,0.5,0.1,0.9,0.3,1.3c0.2,0.4,0.5,0.8,0.8,1c0.8,0.6,1.7,0.9,2.6,0.8c0.7,0,1.4-0.2,2.1-0.5c0.6-0.3,1.1-0.8,1.4-1.4l-1-0.5
		c-0.2,0.4-0.6,0.8-1,1c-0.5,0.2-1,0.3-1.5,0.3c-0.7,0-1.3-0.2-1.9-0.5c-0.3-0.2-0.5-0.4-0.6-0.7c-0.1-0.3-0.2-0.6-0.2-0.9v-1.4
		H77.9z"/>
	<path class="st23" d="M80.5,39.5v-8.3c0.5-0.3,1.1-0.5,1.8-0.6c0.7-0.1,1.4,0.1,2.1,0.4c0.3,0.1,0.5,0.3,0.7,0.6
		c0.2,0.3,0.3,0.6,0.3,0.9v7h1v-7c0-0.3,0.1-0.5,0.2-0.7c0.1-0.2,0.3-0.4,0.5-0.5c0.5-0.3,1-0.5,1.6-0.5c0.7-0.1,1.3,0.1,1.8,0.5
		c0.3,0.2,0.5,0.5,0.6,0.8c0.1,0.3,0.2,0.6,0.1,1v6.5h1.1V33c0-0.5-0.1-0.9-0.2-1.4c-0.2-0.4-0.5-0.8-0.8-1.1
		c-0.7-0.6-1.7-0.9-2.6-0.8c-0.5,0-1.1,0.1-1.6,0.3c-0.5,0.2-0.9,0.6-1.3,1c-0.4-0.4-0.8-0.8-1.3-1c-0.5-0.2-1.1-0.3-1.7-0.3
		c-1.2,0-2.4,0.3-3.4,0.8v9L80.5,39.5z"/>
	<path class="st23" d="M56.7,36.4v3.4c0,0.5-0.1,0.9-0.3,1.3c-0.2,0.4-0.5,0.8-0.8,1C54.8,42.7,53.9,43,53,43
		c-0.7,0-1.4-0.2-2.1-0.5c-0.6-0.3-1.1-0.8-1.4-1.4l1-0.5c0.2,0.4,0.6,0.8,1,1c0.5,0.2,1,0.3,1.5,0.3c0.7,0,1.3-0.2,1.9-0.5
		c0.3-0.2,0.5-0.4,0.6-0.7c0.1-0.3,0.2-0.6,0.2-0.9V39"/>
	<path class="st23" d="M55.6,29.6v8.2c-0.9,0.4-1.8,0.6-2.7,0.6c-0.6,0-1.3-0.2-1.8-0.5c-0.2-0.2-0.4-0.4-0.6-0.7
		c-0.1-0.3-0.2-0.6-0.2-0.9v-6.7h-1.1v6.7c0,0.4,0.1,0.9,0.3,1.3c0.2,0.4,0.5,0.8,0.8,1c0.7,0.6,1.6,0.9,2.6,0.9
		c1.3-0.1,2.6-0.3,3.8-0.8v-9L55.6,29.6z"/>
	<path class="st23" d="M93.6,37.5c0.4,0.6,1,1.2,1.6,1.5c0.7,0.4,1.4,0.5,2.2,0.5c0.8,0,1.6-0.2,2.3-0.7c0.3-0.2,0.6-0.5,0.7-0.9
		s0.2-0.7,0.2-1.1c0-1.5-1.1-2.5-3.1-2.8l-0.7-0.1c-0.1,0-0.3-0.1-0.6-0.2c-0.2-0.1-0.5-0.2-0.7-0.3c-0.2-0.1-0.3-0.3-0.4-0.5
		c-0.1-0.2-0.2-0.4-0.2-0.7c0-0.3,0-0.5,0.2-0.8c0.1-0.2,0.3-0.4,0.6-0.5c0.5-0.3,1.1-0.4,1.7-0.4c0.4,0,0.8,0,1.1,0.2
		c0.4,0.1,0.7,0.3,1,0.6l0.7-0.8c-0.8-0.7-1.7-1-2.8-1c-0.9,0-1.7,0.2-2.4,0.7c-0.3,0.2-0.6,0.5-0.8,0.9c-0.2,0.4-0.3,0.7-0.3,1.1
		c0,0.3,0.1,0.7,0.2,1c0.1,0.3,0.3,0.5,0.5,0.7c0.2,0.2,0.5,0.4,0.8,0.5c0.3,0.1,0.6,0.2,0.9,0.3c0.3,0.1,0.6,0.1,1,0.2
		c0.3,0,0.5,0.1,0.8,0.2c0.2,0.1,0.5,0.2,0.7,0.3c0.2,0.1,0.4,0.3,0.6,0.5c0.1,0.3,0.2,0.5,0.2,0.8c0,0.3,0,0.5-0.1,0.7
		c-0.1,0.2-0.3,0.4-0.5,0.6c-0.5,0.3-1,0.4-1.6,0.4c-0.6,0-1.2-0.1-1.7-0.4c-0.5-0.3-1-0.7-1.3-1.2L93.6,37.5z"/>
</g>
</svg>
