<?xml version="1.0" encoding="utf-8"?>
<!-- Generator: Adobe Illustrator 24.1.3, SVG Export Plug-In . SVG Version: 6.00 Build 0)  -->
<svg version="1.1" id="Layer_1" xmlns="http://www.w3.org/2000/svg" xmlns:xlink="http://www.w3.org/1999/xlink" x="0px" y="0px"
	 viewBox="0 0 31.7 39.7" style="enable-background:new 0 0 31.7 39.7;" xml:space="preserve">
<style type="text/css">
	.st0{fill:#9B0030;}
	.st1{fill:#FEDE64;}
	.st2{fill:#FFF499;}
	.st3{fill:#F9AF00;}
	.st4{fill:#FEBF3D;}
	.st5{fill:#EE7434;}
	.st6{fill:#F28E00;}
	.st7{fill:#E95D17;}
	.st8{fill:#F90000;}
	.st9{fill:#E20021;}
	.st10{fill:#BF0020;}
	.st11{fill:#A30523;}
	.st12{fill:#8E0033;}
	.st13{fill:#66005F;}
	.st14{fill:#73007C;}
	.st15{fill:#8900AA;}
	.st16{fill:#9500AF;}
	.st17{fill:#B900D3;}
	.st18{fill:#0041A0;}
	.st19{fill:#007FBF;}
	.st20{fill:#0062BA;}
	.st21{fill:#0098CD;}
	.st22{fill:#92D0EE;}
</style>
<g id="img">
	<path class="st0" d="M23.8,31.8l8,7.9h-8V31.8z"/>
	<path class="st1" d="M0,7.9v7.9h7.9L0,7.9z"/>
	<path class="st2" d="M7.9,15.9V7.9H0L7.9,15.9z"/>
	<path class="st3" d="M0,15.9v7.9h7.9L0,15.9z"/>
	<path class="st4" d="M7.9,23.8v-7.9H0L7.9,23.8z"/>
	<path class="st5" d="M0,23.8v7.9h7.9L0,23.8z"/>
	<path class="st6" d="M7.9,31.7v-7.9H0L7.9,31.7z"/>
	<path class="st7" d="M7.9,39.7v-7.9H0L7.9,39.7z"/>
	<path class="st8" d="M7.9,31.7v7.9h7.9L7.9,31.7z"/>
	<path class="st9" d="M15.9,39.7v-7.9H7.9L15.9,39.7z"/>
	<path class="st10" d="M15.9,31.7v7.9h7.9L15.9,31.7z"/>
	<path class="st11" d="M23.8,39.7v-7.9h-7.9L23.8,39.7z"/>
	<path class="st12" d="M23.8,31.7v7.9h7.9L23.8,31.7z"/>
	<path class="st13" d="M31.7,39.7v-7.9h-7.9L31.7,39.7z"/>
	<path class="st14" d="M23.8,23.8v7.9h7.9L23.8,23.8z"/>
	<path class="st15" d="M31.7,31.7v-7.9h-7.9L31.7,31.7z"/>
	<path class="st16" d="M23.8,15.9v7.9h7.9L23.8,15.9z"/>
	<path class="st17" d="M31.7,23.8v-7.9h-7.9L31.7,23.8z"/>
	<path class="st18" d="M23.8,7.9v7.9h7.9L23.8,7.9z"/>
	<path class="st19" d="M15.9,7.9v7.9h7.9L15.9,7.9z"/>
	<path class="st20" d="M23.8,15.9V7.9h-7.9L23.8,15.9z"/>
	<path class="st21" d="M15.9,15.9V7.9H7.9L15.9,15.9z"/>
	<path class="st22" d="M7.9,0v7.9h7.9L7.9,0z"/>
</g>
</svg>
