<svg width="34" height="33" viewBox="0 0 34 33" fill="none" xmlns="http://www.w3.org/2000/svg">
<path d="M30.7884 3.30176C30.7884 3.30176 20.567 3.27859 12.5984 11.0027C12.2383 11.3558 11.9107 11.7387 11.6194 12.147C10.2067 12.0378 8.04151 12.0775 6.93729 13.15C4.3532 15.6549 3.49146 19.8303 3.49146 19.8303L9.51797 18.9961V20.6093L12.9331 23.9197H14.5974L13.7356 29.7625C13.7356 29.7625 18.0432 28.9271 20.6273 26.4223C21.7327 25.3509 21.7736 23.2532 21.6621 21.8838C22.0836 21.6018 22.4786 21.2842 22.8426 20.9349C30.8111 13.2107 30.7884 3.30176 30.7884 3.30176ZM19.4275 12.1073C19.4206 11.8134 19.4744 11.5211 19.5857 11.2477C19.6969 10.9742 19.8634 10.725 20.0754 10.5148C20.2874 10.3046 20.5406 10.1375 20.8201 10.0234C21.0996 9.90936 21.3998 9.85056 21.703 9.85049C22.0063 9.85041 22.3065 9.90907 22.5861 10.023C22.8657 10.137 23.1189 10.3039 23.331 10.514C23.5431 10.7241 23.7097 10.9732 23.8211 11.2466C23.9326 11.52 23.9865 11.8123 23.9798 12.1062C23.9666 12.6828 23.7211 13.2315 23.2958 13.6349C22.8705 14.0382 22.2992 14.2641 21.7042 14.2643C21.1092 14.2644 20.5377 14.0388 20.1122 13.6356C19.6867 13.2325 19.4409 12.6839 19.4275 12.1073Z" fill="url(#paint0_linear)"/>
<path d="M10.3752 25.035C9.32905 26.0491 8.00286 25.3837 8.00286 25.3837C8.00286 25.3837 7.35626 24.0596 8.36258 23.0841C8.4491 23.0002 8.55496 22.9528 8.65628 22.8954L7.95618 22.2168C7.59077 22.3382 7.24584 22.5302 6.95442 22.8127C5.93217 23.8036 5.99136 27.3335 5.99136 27.3335C5.99136 27.3335 9.63414 27.3898 10.6553 26.4C10.9467 26.1175 11.1448 25.7831 11.27 25.4289L10.571 24.7514C10.5107 24.8485 10.4617 24.9511 10.3752 25.035Z" fill="url(#paint1_linear)"/>
<defs>
<linearGradient id="paint0_linear" x1="3.49146" y1="16.5321" x2="30.7884" y2="16.5321" gradientUnits="userSpaceOnUse">
<stop stop-color="#0041A0"/>
<stop offset="1" stop-color="#007FBF"/>
</linearGradient>
<linearGradient id="paint1_linear" x1="5.99072" y1="24.7754" x2="11.27" y2="24.7754" gradientUnits="userSpaceOnUse">
<stop stop-color="#0041A0"/>
<stop offset="1" stop-color="#007FBF"/>
</linearGradient>
</defs>
</svg>
