<svg width="38" height="33" viewBox="0 0 38 33" fill="none" xmlns="http://www.w3.org/2000/svg">
<path d="M19.7856 15.4678H18.6567V17.2384H19.7856V15.4678Z" fill="url(#paint0_linear)"/>
<path d="M24.8674 26.3343L24.1995 27.2031L25.944 28.4259L26.612 27.5571L24.8674 26.3343Z" fill="url(#paint1_linear)"/>
<path d="M13.6842 26.2588L11.8306 27.5576L12.4984 28.4265L14.3521 27.1277L13.6842 26.2588Z" fill="url(#paint2_linear)"/>
<path d="M19.2215 18.7002L16.3093 19.5968L19.2215 20.4934L22.1336 19.5968L19.2215 18.7002Z" fill="url(#paint3_linear)"/>
<path d="M19.7051 26.5348L23.4142 25.3947V20.3359L19.7051 21.4761V26.5348Z" fill="url(#paint4_linear)"/>
<path d="M15.0283 25.3947L18.5762 26.4852V21.4265L15.0283 20.3359V25.3947Z" fill="url(#paint5_linear)"/>
<path d="M19.0182 0.533203H19.2627C19.5325 0.533193 19.7997 0.583929 20.049 0.682515C20.2983 0.7811 20.5249 0.925604 20.7157 1.10778C20.9065 1.28995 21.0579 1.50622 21.1612 1.74424C21.2644 1.98226 21.3176 2.23738 21.3176 2.49501V3.72926C21.3176 3.98688 21.2644 4.24197 21.1612 4.47998C21.0579 4.71799 20.9066 4.93425 20.7157 5.11641C20.5249 5.29858 20.2984 5.44308 20.0491 5.54166C19.7998 5.64025 19.5327 5.69099 19.2628 5.69099H19.0183C18.7485 5.691 18.4813 5.64027 18.232 5.54168C17.9826 5.44309 17.7561 5.29859 17.5653 5.11642C17.3745 4.93425 17.2231 4.71798 17.1198 4.47995C17.0166 4.24193 16.9634 3.98682 16.9634 3.72918V2.49493C16.9634 2.23732 17.0166 1.98222 17.1198 1.74421C17.2231 1.5062 17.3744 1.28994 17.5652 1.10778C17.756 0.925617 17.9826 0.781117 18.2319 0.682531C18.4812 0.583945 18.7483 0.533203 19.0182 0.533203ZM24.1114 8.65518C23.8977 8.42791 23.6368 8.24554 23.3453 8.11964C23.0538 7.99374 22.738 7.92707 22.4181 7.92385H22.1203L21.165 10.3796C21.1277 10.4768 21.0623 10.562 20.9764 10.6252C20.8904 10.6884 20.7875 10.727 20.6794 10.7365C20.5725 10.7453 20.4651 10.7245 20.3702 10.6766C20.2752 10.6288 20.1967 10.5559 20.1439 10.4666L19.1852 8.83463L18.3064 10.4544C18.301 10.4643 18.2952 10.4746 18.2892 10.4843C18.2339 10.5724 18.1535 10.6436 18.0572 10.6895C17.961 10.7354 17.8531 10.7541 17.7461 10.7434C17.6379 10.7292 17.536 10.6864 17.4521 10.6197C17.3681 10.553 17.3055 10.4652 17.2712 10.3662L16.399 7.92347H16.0245C15.7053 7.9284 15.3907 7.99608 15.1002 8.12229C14.8098 8.24849 14.5496 8.4305 14.3361 8.65696C14.1226 8.88343 13.9603 9.14948 13.8592 9.43851C13.7582 9.72754 13.7207 10.0334 13.749 10.3369C13.7509 10.3549 13.738 10.3813 13.738 10.3995V14.6583L24.7041 14.6572V10.3995C24.7041 10.3813 24.6912 10.3632 24.6931 10.3451C24.7257 10.0402 24.6907 9.73221 24.5905 9.44107C24.4903 9.14993 24.3271 8.88217 24.1114 8.65518Z" fill="url(#paint6_linear)"/>
<path d="M6.11971 18.4707H5.87507C4.74026 18.4707 3.82031 19.349 3.82031 20.4324V21.6668C3.82031 22.7502 4.74026 23.6285 5.87507 23.6285H6.11971C7.25452 23.6285 8.17447 22.7502 8.17447 21.6668V20.4324C8.17447 19.349 7.25452 18.4707 6.11971 18.4707Z" fill="url(#paint7_linear)"/>
<path d="M9.31293 25.8605H9.01499L8.05973 28.2855C8.02172 28.3809 7.9557 28.4638 7.86959 28.5244C7.78347 28.5849 7.6809 28.6205 7.57416 28.6268C7.46649 28.6339 7.35892 28.6116 7.26407 28.5624C7.16921 28.5133 7.091 28.4393 7.0386 28.3492L6.07996 26.7126L5.20107 28.3305C5.19575 28.3404 5.18994 28.3497 5.18389 28.3594C5.12857 28.4474 5.04807 28.5185 4.95186 28.5643C4.85566 28.6101 4.74775 28.6287 4.64083 28.618C4.53507 28.6102 4.43392 28.5734 4.34963 28.5119C4.26534 28.4504 4.20153 28.3669 4.16591 28.2715L3.29346 25.8605H2.91893C2.60223 25.8566 2.28827 25.9168 1.99779 26.0373C1.7073 26.1578 1.44693 26.3359 1.23388 26.5596C1.02083 26.7833 0.85996 27.0477 0.761907 27.3352C0.663854 27.6228 0.630853 27.9269 0.665086 28.2275C0.669637 28.243 0.673218 28.2587 0.675811 28.2746V32.5335L11.5612 32.5322V28.2746C11.5629 28.2564 11.5656 28.2382 11.5693 28.2203C11.6013 27.9202 11.5666 27.6171 11.4675 27.3307C11.3684 27.0443 11.2071 26.7812 10.9941 26.5584C10.7811 26.3357 10.5213 26.1584 10.2316 26.0381C9.94185 25.9178 9.62881 25.8573 9.31293 25.8605Z" fill="url(#paint8_linear)"/>
<path d="M32.3253 18.4707H32.0806C30.9458 18.4707 30.0259 19.349 30.0259 20.4324V21.6668C30.0259 22.7502 30.9458 23.6285 32.0806 23.6285H32.3253C33.4601 23.6285 34.38 22.7502 34.38 21.6668V20.4324C34.38 19.349 33.4601 18.4707 32.3253 18.4707Z" fill="url(#paint9_linear)"/>
<path d="M35.5242 25.8605H35.2268L34.2715 28.2855C34.2335 28.3809 34.1675 28.4638 34.0814 28.5244C33.9953 28.5849 33.8927 28.6205 33.786 28.6268C33.6783 28.634 33.5707 28.6117 33.4758 28.5625C33.3809 28.5133 33.3027 28.4393 33.2504 28.3492L32.2918 26.7126L31.4129 28.3305C31.4075 28.3404 31.4018 28.3497 31.3958 28.3594C31.3404 28.4474 31.2599 28.5185 31.1637 28.5643C31.0675 28.6101 30.9596 28.6287 30.8526 28.6179C30.7469 28.6102 30.6457 28.5734 30.5614 28.5119C30.4771 28.4504 30.4133 28.3669 30.3777 28.2715L29.5048 25.8605H29.1304C28.8136 25.8567 28.4996 25.9171 28.209 26.0376C27.9184 26.1581 27.6579 26.336 27.4446 26.5597C27.2314 26.7834 27.0702 27.0476 26.9717 27.3351C26.8732 27.6226 26.8396 27.9267 26.8732 28.2275C26.8769 28.243 26.8796 28.2588 26.8813 28.2746V32.5335L37.7667 32.5322V28.2746C37.7693 28.2587 37.7729 28.243 37.7774 28.2275C37.8125 27.9272 37.7801 27.6232 37.6823 27.3358C37.5845 27.0484 37.4236 26.7843 37.2103 26.5611C36.9963 26.3381 36.7357 26.1605 36.4452 26.0398C36.1547 25.9192 35.841 25.8581 35.5242 25.8605Z" fill="url(#paint10_linear)"/>
<defs>
<linearGradient id="paint0_linear" x1="18.6567" y1="16.3531" x2="19.7856" y2="16.3531" gradientUnits="userSpaceOnUse">
<stop stop-color="#0041A0"/>
<stop offset="1" stop-color="#007FBF"/>
</linearGradient>
<linearGradient id="paint1_linear" x1="25.0717" y1="27.8145" x2="25.7001" y2="26.9179" gradientUnits="userSpaceOnUse">
<stop stop-color="#0041A0"/>
<stop offset="1" stop-color="#007FBF"/>
</linearGradient>
<linearGradient id="paint2_linear" x1="12.1645" y1="27.9921" x2="13.9573" y2="26.614" gradientUnits="userSpaceOnUse">
<stop stop-color="#0041A0"/>
<stop offset="1" stop-color="#007FBF"/>
</linearGradient>
<linearGradient id="paint3_linear" x1="16.3093" y1="19.5968" x2="22.1336" y2="19.5968" gradientUnits="userSpaceOnUse">
<stop stop-color="#0041A0"/>
<stop offset="1" stop-color="#007FBF"/>
</linearGradient>
<linearGradient id="paint4_linear" x1="19.7051" y1="23.4354" x2="23.4142" y2="23.4354" gradientUnits="userSpaceOnUse">
<stop stop-color="#0041A0"/>
<stop offset="1" stop-color="#007FBF"/>
</linearGradient>
<linearGradient id="paint5_linear" x1="15.0283" y1="23.4106" x2="18.5762" y2="23.4106" gradientUnits="userSpaceOnUse">
<stop stop-color="#0041A0"/>
<stop offset="1" stop-color="#007FBF"/>
</linearGradient>
<linearGradient id="paint6_linear" x1="13.738" y1="7.59576" x2="24.7049" y2="7.59576" gradientUnits="userSpaceOnUse">
<stop stop-color="#0041A0"/>
<stop offset="1" stop-color="#007FBF"/>
</linearGradient>
<linearGradient id="paint7_linear" x1="3.82031" y1="21.0496" x2="8.17447" y2="21.0496" gradientUnits="userSpaceOnUse">
<stop stop-color="#0041A0"/>
<stop offset="1" stop-color="#007FBF"/>
</linearGradient>
<linearGradient id="paint8_linear" x1="0.651978" y1="29.1969" x2="11.5808" y2="29.1969" gradientUnits="userSpaceOnUse">
<stop stop-color="#0041A0"/>
<stop offset="1" stop-color="#007FBF"/>
</linearGradient>
<linearGradient id="paint9_linear" x1="30.0259" y1="21.0496" x2="34.38" y2="21.0496" gradientUnits="userSpaceOnUse">
<stop stop-color="#0041A0"/>
<stop offset="1" stop-color="#007FBF"/>
</linearGradient>
<linearGradient id="paint10_linear" x1="26.8606" y1="29.1969" x2="37.7912" y2="29.1969" gradientUnits="userSpaceOnUse">
<stop stop-color="#0041A0"/>
<stop offset="1" stop-color="#007FBF"/>
</linearGradient>
</defs>
</svg>
