<svg width="34" height="33" viewBox="0 0 34 33" fill="none" xmlns="http://www.w3.org/2000/svg">
<path d="M10.2324 18.5053C9.24049 16.8321 8.71968 14.9357 8.72212 13.0059C8.72212 6.89736 13.8491 1.92773 20.1509 1.92773C26.4527 1.92773 31.5797 6.89736 31.5797 13.0059C31.5797 19.1145 26.4528 24.0841 20.1509 24.0841C18.1602 24.0865 16.2037 23.5817 14.4776 22.6202L6.56959 30.2856C6.00665 30.8313 5.24313 31.1378 4.44701 31.1378C3.65089 31.1378 2.88738 30.8313 2.32443 30.2856C1.76149 29.7399 1.44523 28.9998 1.44523 28.2281C1.44523 27.4564 1.76149 26.7163 2.32443 26.1707L10.2324 18.5053ZM30.2902 13.0059C30.2902 7.58661 25.7418 3.17773 20.1509 3.17773C14.5601 3.17773 10.0117 7.58661 10.0117 13.0059C10.0117 18.4252 14.5601 22.8342 20.1509 22.8342C25.7418 22.8342 30.2902 18.4252 30.2902 13.0059ZM10.9532 19.5741L8.24763 22.1967L10.669 24.5439L13.3746 21.9213C12.4515 21.2601 11.6352 20.469 10.9532 19.5741ZM3.23654 29.4015C3.55781 29.7122 3.99314 29.8868 4.44701 29.8868C4.90088 29.8868 5.33621 29.7122 5.65749 29.4015L9.75738 25.4277L7.33597 23.0806L3.23654 27.0546C2.91595 27.3661 2.73591 27.7881 2.73591 28.228C2.73591 28.668 2.91595 29.09 3.23654 29.4015Z" fill="url(#paint0_linear)"/>
<defs>
<linearGradient id="paint0_linear" x1="31.5797" y1="16.5328" x2="1.44523" y2="16.5328" gradientUnits="userSpaceOnUse">
<stop stop-color="#0041A0"/>
<stop offset="1" stop-color="#007FBF"/>
</linearGradient>
</defs>
</svg>
