<svg width="34" height="33" viewBox="0 0 34 33" fill="none" xmlns="http://www.w3.org/2000/svg">
<g clip-path="url(#clip0)">
<path d="M5.76601 20.883C6.02392 22.158 7.18452 23.083 8.52566 23.083C9.8668 23.083 11.0274 22.158 11.2853 20.883L11.7238 18.733C11.9559 17.008 10.589 15.458 8.78357 15.458H8.52566H8.26775C6.46237 15.458 5.09544 17.008 5.32756 18.733L5.76601 20.883ZM14.4318 24.958L11.4401 23.933L8.55145 26.733L5.66284 23.933L2.64528 24.958C2.36158 25.058 2.15525 25.283 2.10367 25.558L1.07202 30.233H15.9793L14.9477 25.558C14.8961 25.283 14.7155 25.058 14.4318 24.958ZM22.4787 18.733L22.9171 20.883C23.175 22.158 24.3356 23.083 25.6768 23.083C27.0179 23.083 28.1785 22.158 28.4364 20.883L28.8749 18.733C29.107 17.008 27.7401 15.458 25.9347 15.458H25.6768H25.4189C23.6393 15.458 22.2465 17.008 22.4787 18.733ZM32.0988 25.558C32.0472 25.283 31.8408 25.058 31.5571 24.958L28.5654 23.933H22.8139L19.8222 24.958C19.5385 25.058 19.3321 25.283 19.2806 25.558L18.2489 30.233H33.1562L32.0988 25.558Z" fill="url(#paint0_linear)"/>
<path d="M9.84096 13.2832L12.7554 12.7582C13.2712 13.2582 13.9418 13.6332 14.6639 13.8082C16.9077 14.4082 19.2547 13.0332 19.7448 10.7832C20.209 8.75821 18.971 6.68321 16.9077 6.08321C14.8444 5.45821 12.7038 6.48321 11.8785 8.30821C11.8011 8.45821 10.1505 11.8832 9.60884 13.0082C9.53147 13.1582 9.66043 13.3332 9.84096 13.2832Z" fill="url(#paint1_linear)"/>
<path d="M16.3919 5.15798C17.114 4.28298 18.2488 3.73298 19.4868 3.80798C20.4669 3.85798 21.3438 4.28298 21.9885 5.00798C22.6333 5.70798 22.9428 6.63298 22.8912 7.55798C22.8397 8.18298 22.6333 8.80798 22.2723 9.33298L22.1175 9.53298L23.0976 11.908C22.3754 11.733 21.3438 11.483 20.4669 11.258C20.3637 11.583 20.2348 11.883 20.08 12.183C20.9827 12.408 23.4329 13.008 24.3871 13.233C24.5419 13.283 24.6966 13.108 24.6192 12.958L23.2523 9.63298C23.6392 9.00798 23.8455 8.33298 23.8971 7.60798C23.9745 6.40798 23.5618 5.23298 22.7365 4.33298C21.9112 3.43298 20.7764 2.88298 19.5384 2.80798C17.6814 2.70798 16.0308 3.65798 15.1797 5.10798C15.5923 5.10798 15.9792 5.10798 16.3919 5.15798Z" fill="url(#paint2_linear)"/>
</g>
<defs>
<linearGradient id="paint0_linear" x1="1.07202" y1="22.8455" x2="33.1562" y2="22.8455" gradientUnits="userSpaceOnUse">
<stop stop-color="#0041A0"/>
<stop offset="1" stop-color="#007FBF"/>
</linearGradient>
<linearGradient id="paint1_linear" x1="9.58594" y1="9.92423" x2="19.8421" y2="9.92423" gradientUnits="userSpaceOnUse">
<stop stop-color="#0041A0"/>
<stop offset="1" stop-color="#007FBF"/>
</linearGradient>
<linearGradient id="paint2_linear" x1="15.1797" y1="8.02124" x2="24.6398" y2="8.02124" gradientUnits="userSpaceOnUse">
<stop stop-color="#0041A0"/>
<stop offset="1" stop-color="#007FBF"/>
</linearGradient>
<clipPath id="clip0">
<rect width="33.0127" height="32" fill="white" transform="translate(0.607666 0.533203)"/>
</clipPath>
</defs>
</svg>
